<?xml version="1.0" encoding="UTF-8" standalone="no"?><!DOCTYPE svg PUBLIC "-//W3C//DTD SVG 1.1//EN" "http://www.w3.org/Graphics/SVG/1.1/DTD/svg11.dtd"><svg width="100%" height="100%" viewBox="0 0 1080 1080" version="1.1" xmlns="http://www.w3.org/2000/svg" xmlns:xlink="http://www.w3.org/1999/xlink" xml:space="preserve" xmlns:serif="http://www.serif.com/" style="fill-rule:evenodd;clip-rule:evenodd;stroke-miterlimit:10;"><g id="Background"><rect x="0" y="0" width="1080" height="1080" style="fill:#ffad01;"/></g><g id="Shape"><clipPath id="_clip1"><rect x="0" y="0" width="540" height="540" clip-rule="nonzero"/></clipPath><g clip-path="url(#_clip1)"><path d="M114.942,125.405l-34.947,-34.947l34.947,-34.948l-40.818,-40.818l-34.947,34.947l-34.947,-34.947l-40.818,40.818l34.947,34.948l-34.947,34.947l40.818,40.818l34.947,-34.947l34.947,34.947l40.818,-40.818Z" style="fill:none;fill-rule:nonzero;stroke:#000;stroke-width:3px;"/></g><path d="M55.783,45.686l-34.947,-34.947l-20.836,20.836l-0,39.964l14.965,14.965l-14.965,14.965l-0,39.965l20.836,20.836l34.947,-34.948l34.948,34.948l40.818,-40.818l-34.947,-34.948l34.947,-34.947l-40.818,-40.818l-34.948,34.947Z" style="fill:#fff;fill-rule:nonzero;"/><g><clipPath id="_clip2"><rect x="0" y="0" width="540" height="540" clip-rule="nonzero"/></clipPath><g clip-path="url(#_clip2)"><path d="M131.549,121.451l-34.947,-34.947l34.947,-34.948l-40.818,-40.817l-34.948,34.947l-34.947,-34.947l-40.818,40.817l34.948,34.948l-34.948,34.947l40.818,40.818l34.947,-34.947l34.948,34.947l40.818,-40.818Z" style="fill:none;fill-rule:nonzero;stroke:#000;stroke-width:3px;"/><path d="M391.724,401.155l-34.947,-34.947l34.947,-34.948l-40.818,-40.818l-34.948,34.947l-34.947,-34.947l-40.818,40.818l34.947,34.948l-34.947,34.947l40.818,40.818l34.947,-34.947l34.948,34.947l40.818,-40.818Z" style="fill:none;fill-rule:nonzero;stroke:#000;stroke-width:3px;"/><path d="M408.329,397.201l-34.947,-34.947l34.947,-34.948l-40.818,-40.817l-34.947,34.947l-34.947,-34.947l-40.818,40.817l34.947,34.948l-34.947,34.947l40.818,40.818l34.947,-34.947l34.947,34.947l40.818,-40.818Z" style="fill:#feec70;fill-rule:nonzero;stroke:#000;stroke-width:3px;"/><clipPath id="_clip3"><rect x="0" y="0" width="540" height="540" clip-rule="nonzero"/></clipPath><g clip-path="url(#_clip3)"><path d="M654.942,125.405l-34.947,-34.947l34.947,-34.948l-40.818,-40.818l-34.947,34.947l-34.947,-34.947l-40.818,40.818l34.947,34.948l-34.947,34.947l40.818,40.818l34.947,-34.947l34.947,34.947l40.818,-40.818Z" style="fill:none;fill-rule:nonzero;stroke:#000;stroke-width:3px;"/></g></g></g><path d="M520.018,51.556l19.982,19.982l0,-39.964l-19.982,19.982Zm0,69.895l19.982,19.982l0,-39.964l-19.982,19.982Z" style="fill:#fff;fill-rule:nonzero;"/><g><clipPath id="_clip4"><rect x="0" y="0" width="540" height="540" clip-rule="nonzero"/></clipPath><g clip-path="url(#_clip4)"><path d="M671.549,121.451l-34.947,-34.947l34.947,-34.948l-40.818,-40.817l-34.948,34.947l-34.947,-34.947l-40.818,40.817l34.948,34.948l-34.948,34.947l40.818,40.818l34.947,-34.947l34.948,34.947l40.818,-40.818Z" style="fill:none;fill-rule:nonzero;stroke:#000;stroke-width:3px;"/><path d="M235.27,85.045c2.768,0 4.985,2.242 4.985,4.99c0,2.759 -2.217,4.983 -4.985,4.983c-2.745,0 -4.994,-2.224 -4.994,-4.983c0,-2.748 2.249,-4.99 4.994,-4.99Zm0,25.41c2.768,0 4.985,2.224 4.985,4.963c0,2.777 -2.217,4.985 -4.985,4.985c-2.745,0 -4.994,-2.208 -4.994,-4.985c0,-2.739 2.249,-4.963 4.994,-4.963Zm0,25.388c2.768,0 4.985,2.222 4.985,4.992c0,2.744 -2.217,4.987 -4.985,4.987c-2.741,0 -4.992,-2.243 -4.992,-4.987c0,-2.77 2.251,-4.992 4.992,-4.992Zm0,25.395c2.768,0 4.985,2.213 4.985,4.985c0,2.743 -2.217,4.985 -4.985,4.985c-2.741,0 -4.992,-2.242 -4.992,-4.985c0,-2.772 2.251,-4.985 4.992,-4.985Zm0,25.388c2.768,0 4.985,2.239 4.985,4.98c0,2.748 -2.217,4.997 -4.985,4.997c-2.741,0 -4.992,-2.249 -4.992,-4.997c0,-2.741 2.251,-4.98 4.992,-4.98Zm0,25.378c2.768,0 4.985,2.249 4.985,4.995c0,2.767 -2.217,4.992 -4.985,4.992c-2.741,0 -4.992,-2.225 -4.992,-4.992c0,-2.746 2.251,-4.995 4.992,-4.995Z" style="fill:none;fill-rule:nonzero;stroke:#050505;stroke-width:3px;"/><path d="M230.278,242.389c0,-1.302 0.546,-2.592 1.466,-3.52c0.93,-0.92 2.226,-1.477 3.526,-1.477c1.32,0 2.593,0.557 3.542,1.477c1.841,1.874 1.841,5.186 0,7.068c-0.949,0.914 -2.222,1.464 -3.542,1.464c-1.3,0 -2.596,-0.55 -3.526,-1.464c-0.92,-0.926 -1.466,-2.224 -1.466,-3.548Z" style="fill:none;fill-rule:nonzero;stroke:#050505;stroke-width:3px;"/><path d="M208.681,85.045c2.741,0 4.99,2.242 4.99,4.99c-0,2.759 -2.249,4.983 -4.99,4.983c-2.768,0 -4.99,-2.224 -4.99,-4.983c-0,-2.748 2.222,-4.99 4.99,-4.99Zm-0,25.388c2.741,0 4.99,2.246 4.99,4.985c-0,2.777 -2.249,4.985 -4.99,4.985c-2.768,0 -4.99,-2.208 -4.99,-4.985c-0,-2.739 2.222,-4.985 4.99,-4.985Zm-0,25.41c2.741,0 4.994,2.222 4.994,4.992c-0,2.744 -2.253,4.987 -4.994,4.987c-2.768,0 -4.99,-2.243 -4.99,-4.987c-0,-2.77 2.222,-4.992 4.99,-4.992Zm-0,25.395c2.741,0 4.994,2.213 4.994,4.985c-0,2.743 -2.253,4.985 -4.994,4.985c-2.768,0 -4.99,-2.242 -4.99,-4.985c-0,-2.772 2.222,-4.985 4.99,-4.985Zm-0,25.388c2.741,0 4.994,2.239 4.994,4.98c-0,2.748 -2.253,4.997 -4.994,4.997c-2.768,0 -4.99,-2.249 -4.99,-4.997c-0,-2.741 2.222,-4.98 4.99,-4.98Zm-0,25.378c2.741,0 4.994,2.249 4.994,4.995c-0,2.767 -2.253,4.992 -4.994,4.992c-2.768,0 -4.99,-2.225 -4.99,-4.992c-0,-2.746 2.222,-4.995 4.99,-4.995Z" style="fill:none;fill-rule:nonzero;stroke:#050505;stroke-width:3px;"/><path d="M203.691,242.389c-0,-1.302 0.526,-2.592 1.448,-3.52c0.949,-0.92 2.218,-1.477 3.542,-1.477c1.295,0 2.592,0.557 3.514,1.477c1.848,1.874 1.848,5.186 -0,7.068c-0.922,0.914 -2.219,1.442 -3.514,1.442c-1.324,0 -2.617,-0.528 -3.542,-1.442c-0.922,-0.954 -1.448,-2.224 -1.448,-3.548Z" style="fill:none;fill-rule:nonzero;stroke:#050505;stroke-width:3px;"/><path d="M181.217,85.045c2.777,0 4.987,2.242 4.987,4.99c-0,2.759 -2.21,4.983 -4.987,4.983c-2.736,0 -4.985,-2.224 -4.985,-4.983c-0,-2.748 2.249,-4.99 4.985,-4.99Zm-0,25.388c2.777,0 4.987,2.246 4.987,4.985c-0,2.777 -2.21,5.01 -4.987,5.01c-2.736,0 -4.985,-2.233 -4.985,-5.01c-0,-2.739 2.249,-4.985 4.985,-4.985Zm-0,25.41c2.777,0 4.987,2.222 4.987,4.992c-0,2.744 -2.21,4.987 -4.987,4.987c-2.736,0 -4.985,-2.243 -4.985,-4.987c-0,-2.77 2.249,-4.992 4.985,-4.992Zm-0,25.395c2.777,0 4.987,2.213 4.987,4.985c-0,2.743 -2.21,4.985 -4.987,4.985c-2.736,0 -4.985,-2.242 -4.985,-4.985c-0,-2.772 2.249,-4.985 4.985,-4.985Zm-0,25.388c2.777,0 4.987,2.219 4.987,4.98c-0,2.748 -2.21,4.997 -4.987,4.997c-2.736,0 -4.985,-2.249 -4.985,-4.997c-0,-2.761 2.249,-4.98 4.985,-4.98Zm-0,25.378c2.777,0 4.987,2.249 4.987,4.995c-0,2.767 -2.21,4.992 -4.987,4.992c-2.736,0 -4.985,-2.225 -4.985,-4.992c-0,-2.746 2.249,-4.995 4.985,-4.995Z" style="fill:none;fill-rule:nonzero;stroke:#050505;stroke-width:3px;"/><path d="M176.231,242.389c0,-1.302 0.519,-2.592 1.444,-3.52c0.952,-0.92 2.251,-1.477 3.541,-1.477c1.327,0 2.6,0.557 3.52,1.477c1.874,1.874 1.874,5.186 0.026,7.068c-0.946,0.914 -2.244,1.464 -3.546,1.464c-1.29,0 -2.589,-0.55 -3.51,-1.464c-0.956,-0.954 -1.475,-2.224 -1.475,-3.548Z" style="fill:none;fill-rule:nonzero;stroke:#050505;stroke-width:3px;"/><path d="M87.5,306.442c2.768,0 4.985,2.242 4.985,4.989c0,2.76 -2.217,4.984 -4.985,4.984c-2.745,0 -4.994,-2.224 -4.994,-4.984c0,-2.747 2.249,-4.989 4.994,-4.989Zm0,25.41c2.768,0 4.985,2.224 4.985,4.963c0,2.776 -2.217,4.985 -4.985,4.985c-2.745,0 -4.994,-2.209 -4.994,-4.985c0,-2.739 2.249,-4.963 4.994,-4.963Zm0,25.388c2.768,0 4.985,2.222 4.985,4.992c0,2.743 -2.217,4.987 -4.985,4.987c-2.741,0 -4.992,-2.244 -4.992,-4.987c0,-2.77 2.251,-4.992 4.992,-4.992Zm0,25.394c2.768,0 4.985,2.214 4.985,4.986c0,2.743 -2.217,4.985 -4.985,4.985c-2.741,0 -4.992,-2.242 -4.992,-4.985c0,-2.772 2.251,-4.986 4.992,-4.986Zm0,25.388c2.768,0 4.985,2.24 4.985,4.982c0,2.747 -2.217,4.996 -4.985,4.996c-2.741,0 -4.992,-2.249 -4.992,-4.996c0,-2.742 2.251,-4.982 4.992,-4.982Zm0,25.38c2.768,0 4.985,2.248 4.985,4.993c0,2.769 -2.217,4.992 -4.985,4.992c-2.741,0 -4.992,-2.223 -4.992,-4.992c0,-2.745 2.251,-4.993 4.992,-4.993Z" style="fill:none;fill-rule:nonzero;stroke:#050505;stroke-width:3px;"/><path d="M82.508,463.786c-0,-1.302 0.546,-2.592 1.466,-3.52c0.93,-0.919 2.226,-1.476 3.526,-1.476c1.32,0 2.593,0.557 3.542,1.476c1.841,1.874 1.841,5.185 -0,7.068c-0.949,0.914 -2.222,1.464 -3.542,1.464c-1.3,0 -2.596,-0.55 -3.526,-1.464c-0.92,-0.927 -1.466,-2.224 -1.466,-3.548Z" style="fill:none;fill-rule:nonzero;stroke:#050505;stroke-width:3px;"/><path d="M60.91,306.442c2.741,0 4.99,2.242 4.99,4.989c0,2.76 -2.249,4.984 -4.99,4.984c-2.768,0 -4.99,-2.224 -4.99,-4.984c0,-2.747 2.222,-4.989 4.99,-4.989Zm0,25.388c2.741,0 4.99,2.246 4.99,4.985c0,2.776 -2.249,4.985 -4.99,4.985c-2.768,0 -4.99,-2.209 -4.99,-4.985c0,-2.739 2.222,-4.985 4.99,-4.985Zm0,25.41c2.741,0 4.994,2.222 4.994,4.992c0,2.743 -2.253,4.987 -4.994,4.987c-2.768,0 -4.99,-2.244 -4.99,-4.987c0,-2.77 2.222,-4.992 4.99,-4.992Zm0,25.394c2.741,0 4.994,2.214 4.994,4.986c0,2.743 -2.253,4.985 -4.994,4.985c-2.768,0 -4.99,-2.242 -4.99,-4.985c0,-2.772 2.222,-4.986 4.99,-4.986Zm0,25.388c2.741,0 4.994,2.24 4.994,4.982c0,2.747 -2.253,4.996 -4.994,4.996c-2.768,0 -4.99,-2.249 -4.99,-4.996c0,-2.742 2.222,-4.982 4.99,-4.982Zm0,25.38c2.741,0 4.994,2.248 4.994,4.993c0,2.769 -2.253,4.992 -4.994,4.992c-2.768,0 -4.99,-2.223 -4.99,-4.992c0,-2.745 2.222,-4.993 4.99,-4.993Z" style="fill:none;fill-rule:nonzero;stroke:#050505;stroke-width:3px;"/><path d="M55.92,463.786c0,-1.302 0.526,-2.592 1.448,-3.52c0.949,-0.919 2.218,-1.476 3.542,-1.476c1.295,0 2.592,0.557 3.514,1.476c1.848,1.874 1.848,5.185 0,7.068c-0.922,0.914 -2.219,1.442 -3.514,1.442c-1.324,0 -2.617,-0.528 -3.542,-1.442c-0.922,-0.953 -1.448,-2.224 -1.448,-3.548Z" style="fill:none;fill-rule:nonzero;stroke:#050505;stroke-width:3px;"/><path d="M33.446,306.442c2.777,0 4.987,2.242 4.987,4.989c0,2.76 -2.21,4.984 -4.987,4.984c-2.736,0 -4.985,-2.224 -4.985,-4.984c0,-2.747 2.249,-4.989 4.985,-4.989Zm0,25.388c2.777,0 4.987,2.246 4.987,4.985c0,2.776 -2.21,5.01 -4.987,5.01c-2.736,0 -4.985,-2.234 -4.985,-5.01c0,-2.739 2.249,-4.985 4.985,-4.985Zm0,25.41c2.777,0 4.987,2.222 4.987,4.992c0,2.743 -2.21,4.987 -4.987,4.987c-2.736,0 -4.985,-2.244 -4.985,-4.987c0,-2.77 2.249,-4.992 4.985,-4.992Zm0,25.394c2.777,0 4.987,2.214 4.987,4.986c0,2.743 -2.21,4.985 -4.987,4.985c-2.736,0 -4.985,-2.242 -4.985,-4.985c0,-2.772 2.249,-4.986 4.985,-4.986Zm0,25.388c2.777,0 4.987,2.221 4.987,4.982c0,2.747 -2.21,4.996 -4.987,4.996c-2.736,0 -4.985,-2.249 -4.985,-4.996c0,-2.761 2.249,-4.982 4.985,-4.982Zm0,25.38c2.777,0 4.987,2.248 4.987,4.993c0,2.769 -2.21,4.992 -4.987,4.992c-2.736,0 -4.985,-2.223 -4.985,-4.992c0,-2.745 2.249,-4.993 4.985,-4.993Z" style="fill:none;fill-rule:nonzero;stroke:#050505;stroke-width:3px;"/><path d="M28.461,463.786c-0,-1.302 0.519,-2.592 1.444,-3.52c0.952,-0.919 2.251,-1.476 3.541,-1.476c1.327,0 2.6,0.557 3.52,1.476c1.874,1.874 1.874,5.185 0.026,7.068c-0.946,0.914 -2.244,1.464 -3.546,1.464c-1.29,0 -2.589,-0.55 -3.51,-1.464c-0.956,-0.953 -1.475,-2.224 -1.475,-3.548Z" style="fill:none;fill-rule:nonzero;stroke:#050505;stroke-width:3px;"/><path d="M504.5,348.837c2.768,-0 4.985,2.242 4.985,4.989c0,2.76 -2.217,4.984 -4.985,4.984c-2.745,-0 -4.994,-2.224 -4.994,-4.984c0,-2.747 2.249,-4.989 4.994,-4.989Zm0,25.41c2.768,-0 4.985,2.224 4.985,4.963c0,2.776 -2.217,4.985 -4.985,4.985c-2.745,-0 -4.994,-2.209 -4.994,-4.985c0,-2.739 2.249,-4.963 4.994,-4.963Zm0,25.388c2.768,-0 4.985,2.222 4.985,4.992c0,2.743 -2.217,4.987 -4.985,4.987c-2.741,-0 -4.992,-2.244 -4.992,-4.987c0,-2.77 2.251,-4.992 4.992,-4.992Zm0,25.394c2.768,-0 4.985,2.214 4.985,4.986c0,2.743 -2.217,4.985 -4.985,4.985c-2.741,-0 -4.992,-2.242 -4.992,-4.985c0,-2.772 2.251,-4.986 4.992,-4.986Zm0,25.388c2.768,-0 4.985,2.24 4.985,4.982c0,2.747 -2.217,4.996 -4.985,4.996c-2.741,-0 -4.992,-2.249 -4.992,-4.996c0,-2.742 2.251,-4.982 4.992,-4.982Zm0,25.38c2.768,-0 4.985,2.248 4.985,4.993c0,2.769 -2.217,4.992 -4.985,4.992c-2.741,-0 -4.992,-2.223 -4.992,-4.992c0,-2.745 2.251,-4.993 4.992,-4.993Z" style="fill:none;fill-rule:nonzero;stroke:#050505;stroke-width:3px;"/><path d="M499.508,506.181c-0,-1.302 0.546,-2.592 1.466,-3.52c0.93,-0.919 2.226,-1.476 3.526,-1.476c1.32,-0 2.593,0.557 3.542,1.476c1.841,1.874 1.841,5.185 -0,7.068c-0.949,0.914 -2.222,1.464 -3.542,1.464c-1.3,-0 -2.596,-0.55 -3.526,-1.464c-0.92,-0.927 -1.466,-2.224 -1.466,-3.548Z" style="fill:none;fill-rule:nonzero;stroke:#050505;stroke-width:3px;"/><path d="M477.91,348.837c2.741,-0 4.99,2.242 4.99,4.989c0,2.76 -2.249,4.984 -4.99,4.984c-2.768,-0 -4.99,-2.224 -4.99,-4.984c0,-2.747 2.222,-4.989 4.99,-4.989Zm0,25.388c2.741,-0 4.99,2.246 4.99,4.985c0,2.776 -2.249,4.985 -4.99,4.985c-2.768,-0 -4.99,-2.209 -4.99,-4.985c0,-2.739 2.222,-4.985 4.99,-4.985Zm0,25.41c2.741,-0 4.994,2.222 4.994,4.992c0,2.743 -2.253,4.987 -4.994,4.987c-2.768,-0 -4.99,-2.244 -4.99,-4.987c0,-2.77 2.222,-4.992 4.99,-4.992Zm0,25.394c2.741,-0 4.994,2.214 4.994,4.986c0,2.743 -2.253,4.985 -4.994,4.985c-2.768,-0 -4.99,-2.242 -4.99,-4.985c0,-2.772 2.222,-4.986 4.99,-4.986Zm0,25.388c2.741,-0 4.994,2.24 4.994,4.982c0,2.747 -2.253,4.996 -4.994,4.996c-2.768,-0 -4.99,-2.249 -4.99,-4.996c0,-2.742 2.222,-4.982 4.99,-4.982Zm0,25.38c2.741,-0 4.994,2.248 4.994,4.993c0,2.769 -2.253,4.992 -4.994,4.992c-2.768,-0 -4.99,-2.223 -4.99,-4.992c0,-2.745 2.222,-4.993 4.99,-4.993Z" style="fill:none;fill-rule:nonzero;stroke:#050505;stroke-width:3px;"/><path d="M472.92,506.181c0,-1.302 0.526,-2.592 1.448,-3.52c0.949,-0.919 2.218,-1.476 3.542,-1.476c1.295,-0 2.592,0.557 3.514,1.476c1.848,1.874 1.848,5.185 0,7.068c-0.922,0.914 -2.219,1.442 -3.514,1.442c-1.324,-0 -2.617,-0.528 -3.542,-1.442c-0.922,-0.953 -1.448,-2.224 -1.448,-3.548Z" style="fill:none;fill-rule:nonzero;stroke:#050505;stroke-width:3px;"/><path d="M450.446,348.837c2.777,-0 4.987,2.242 4.987,4.989c0,2.76 -2.21,4.984 -4.987,4.984c-2.736,-0 -4.985,-2.224 -4.985,-4.984c0,-2.747 2.249,-4.989 4.985,-4.989Zm0,25.388c2.777,-0 4.987,2.246 4.987,4.985c0,2.776 -2.21,5.01 -4.987,5.01c-2.736,-0 -4.985,-2.234 -4.985,-5.01c0,-2.739 2.249,-4.985 4.985,-4.985Zm0,25.41c2.777,-0 4.987,2.222 4.987,4.992c0,2.743 -2.21,4.987 -4.987,4.987c-2.736,-0 -4.985,-2.244 -4.985,-4.987c0,-2.77 2.249,-4.992 4.985,-4.992Zm0,25.394c2.777,-0 4.987,2.214 4.987,4.986c0,2.743 -2.21,4.985 -4.987,4.985c-2.736,-0 -4.985,-2.242 -4.985,-4.985c0,-2.772 2.249,-4.986 4.985,-4.986Zm0,25.388c2.777,-0 4.987,2.221 4.987,4.982c0,2.747 -2.21,4.996 -4.987,4.996c-2.736,-0 -4.985,-2.249 -4.985,-4.996c0,-2.761 2.249,-4.982 4.985,-4.982Zm0,25.38c2.777,-0 4.987,2.248 4.987,4.993c0,2.769 -2.21,4.992 -4.987,4.992c-2.736,-0 -4.985,-2.223 -4.985,-4.992c0,-2.745 2.249,-4.993 4.985,-4.993Z" style="fill:none;fill-rule:nonzero;stroke:#050505;stroke-width:3px;"/><path d="M445.461,506.181c-0,-1.302 0.519,-2.592 1.444,-3.52c0.952,-0.919 2.251,-1.476 3.541,-1.476c1.327,-0 2.6,0.557 3.52,1.476c1.874,1.874 1.874,5.185 0.026,7.068c-0.946,0.914 -2.244,1.464 -3.546,1.464c-1.29,-0 -2.589,-0.55 -3.51,-1.464c-0.956,-0.953 -1.475,-2.224 -1.475,-3.548Z" style="fill:none;fill-rule:nonzero;stroke:#050505;stroke-width:3px;"/><path d="M316.651,14.692c0,-12.556 -10.194,-22.75 -22.75,-22.75c-12.556,0 -22.75,10.194 -22.75,22.75c0,12.556 10.194,22.75 22.75,22.75c12.556,0 22.75,-10.194 22.75,-22.75Z" style="fill:none;stroke:#050505;stroke-width:3px;"/><path d="M333.651,14.692c0,-21.938 -17.811,-39.75 -39.75,-39.75c-21.938,0 -39.75,17.812 -39.75,39.75c0,21.939 17.812,39.75 39.75,39.75c21.939,0 39.75,-17.811 39.75,-39.75Z" style="fill:none;stroke:#050505;stroke-width:3px;"/><path d="M478.184,226.274c-0,-12.556 -10.194,-22.75 -22.75,-22.75c-12.556,-0 -22.75,10.194 -22.75,22.75c-0,12.556 10.194,22.75 22.75,22.75c12.556,-0 22.75,-10.194 22.75,-22.75Z" style="fill:none;stroke:#050505;stroke-width:3px;"/><path d="M495.184,226.274c-0,-21.939 -17.812,-39.75 -39.75,-39.75c-21.939,-0 -39.75,17.811 -39.75,39.75c-0,21.939 17.811,39.75 39.75,39.75c21.938,-0 39.75,-17.811 39.75,-39.75Z" style="fill:none;stroke:#050505;stroke-width:3px;"/><path d="M316.651,555.25c0,-12.556 -10.194,-22.75 -22.75,-22.75c-12.556,0 -22.75,10.194 -22.75,22.75c0,12.556 10.194,22.75 22.75,22.75c12.556,0 22.75,-10.194 22.75,-22.75Z" style="fill:none;stroke:#050505;stroke-width:3px;"/><path d="M333.651,555.25c0,-21.939 -17.811,-39.75 -39.75,-39.75c-21.938,0 -39.75,17.811 -39.75,39.75c0,21.939 17.812,39.75 39.75,39.75c21.939,0 39.75,-17.811 39.75,-39.75Z" style="fill:none;stroke:#050505;stroke-width:3px;"/><path d="M467.5,79.045c0,3.314 -2.687,6 -6,6l-85.333,0c-3.314,0 -6,-2.686 -6,-6l0,-4.378c0,-3.314 2.686,-6 6,-6l85.333,0c3.313,0 6,2.686 6,6l0,4.378Z" style="fill:none;fill-rule:nonzero;stroke:#050505;stroke-width:3px;"/><path d="M408.329,113.817c0,3.314 -2.686,6 -6,6l-85.333,-0c-3.313,-0 -6,-2.686 -6,-6l0,-4.378c0,-3.314 2.687,-6 6,-6l85.333,-0c3.314,-0 6,2.686 6,6l0,4.378Z" style="fill:none;fill-rule:nonzero;stroke:#050505;stroke-width:3px;"/><path d="M187.749,495.562c-3.313,-0 -6,-2.686 -6,-6l0,-85.333c0,-3.315 2.687,-6 6,-6l4.379,-0c3.313,-0 6,2.685 6,6l0,85.332c0,3.315 -2.687,6 -6,6l-4.379,0Z" style="fill:none;fill-rule:nonzero;stroke:#050505;stroke-width:3px;"/><path d="M152.978,436.391c-3.313,-0 -6,-2.686 -6,-6l0,-85.333c0,-3.313 2.687,-6 6,-6l4.379,-0c3.314,-0 6,2.687 6,6l0,85.333c0,3.314 -2.687,6 -6,6l-4.379,-0Z" style="fill:none;fill-rule:nonzero;stroke:#050505;stroke-width:3px;"/><path d="M56.885,247.441l45.418,-32.948l5.825,55.807l-51.243,-22.859Z" style="fill:none;fill-rule:nonzero;stroke:#050505;stroke-width:3px;"/><path d="M302.701,226.274l7.772,-55.57l44.239,34.517l-52.011,21.053Z" style="fill:none;fill-rule:nonzero;stroke:#050505;stroke-width:3px;"/></g></g><clipPath id="_clip5"><rect x="0" y="540" width="540" height="540" clip-rule="nonzero"/></clipPath><g clip-path="url(#_clip5)"><path d="M114.942,665.405l-34.947,-34.947l34.947,-34.948l-40.818,-40.818l-34.947,34.947l-34.947,-34.947l-40.818,40.818l34.947,34.948l-34.947,34.947l40.818,40.818l34.947,-34.947l34.947,34.947l40.818,-40.818Z" style="fill:none;fill-rule:nonzero;stroke:#000;stroke-width:3px;"/></g><path d="M55.783,585.686l-34.947,-34.947l-20.836,20.836l-0,39.964l14.965,14.965l-14.965,14.965l-0,39.964l20.836,20.836l34.947,-34.947l34.948,34.947l40.818,-40.817l-34.947,-34.948l34.947,-34.947l-40.818,-40.818l-34.948,34.947Z" style="fill:#fff;fill-rule:nonzero;"/><g><clipPath id="_clip6"><rect x="0" y="540" width="540" height="540" clip-rule="nonzero"/></clipPath><g clip-path="url(#_clip6)"><path d="M131.549,661.451l-34.947,-34.947l34.947,-34.948l-40.818,-40.817l-34.948,34.947l-34.947,-34.947l-40.818,40.817l34.948,34.948l-34.948,34.947l40.818,40.818l34.947,-34.947l34.948,34.947l40.818,-40.818Z" style="fill:none;fill-rule:nonzero;stroke:#000;stroke-width:3px;"/><path d="M391.724,941.155l-34.947,-34.947l34.947,-34.948l-40.818,-40.818l-34.948,34.947l-34.947,-34.947l-40.818,40.818l34.947,34.948l-34.947,34.947l40.818,40.818l34.947,-34.947l34.948,34.947l40.818,-40.818Z" style="fill:none;fill-rule:nonzero;stroke:#000;stroke-width:3px;"/><path d="M408.329,937.201l-34.947,-34.947l34.947,-34.948l-40.818,-40.817l-34.947,34.947l-34.947,-34.947l-40.818,40.817l34.947,34.948l-34.947,34.947l40.818,40.818l34.947,-34.947l34.947,34.947l40.818,-40.818Z" style="fill:#feec70;fill-rule:nonzero;stroke:#000;stroke-width:3px;"/><clipPath id="_clip7"><rect x="0" y="540" width="540" height="540" clip-rule="nonzero"/></clipPath><g clip-path="url(#_clip7)"><path d="M654.942,665.405l-34.947,-34.947l34.947,-34.948l-40.818,-40.818l-34.947,34.947l-34.947,-34.947l-40.818,40.818l34.947,34.948l-34.947,34.947l40.818,40.818l34.947,-34.947l34.947,34.947l40.818,-40.818Z" style="fill:none;fill-rule:nonzero;stroke:#000;stroke-width:3px;"/></g></g></g><path d="M520.018,591.557l19.982,19.981l0,-39.963l-19.982,19.981Zm0,69.895l19.982,19.982l0,-39.963l-19.982,19.981Z" style="fill:#fff;fill-rule:nonzero;"/><g><clipPath id="_clip8"><rect x="0" y="540" width="540" height="540" clip-rule="nonzero"/></clipPath><g clip-path="url(#_clip8)"><path d="M671.549,661.451l-34.947,-34.947l34.947,-34.948l-40.818,-40.817l-34.948,34.947l-34.947,-34.947l-40.818,40.817l34.948,34.948l-34.948,34.947l40.818,40.818l34.947,-34.947l34.948,34.947l40.818,-40.818Z" style="fill:none;fill-rule:nonzero;stroke:#000;stroke-width:3px;"/><path d="M235.27,625.045c2.768,0 4.985,2.242 4.985,4.99c0,2.759 -2.217,4.983 -4.985,4.983c-2.745,0 -4.994,-2.224 -4.994,-4.983c0,-2.748 2.249,-4.99 4.994,-4.99Zm0,25.41c2.768,0 4.985,2.224 4.985,4.963c0,2.777 -2.217,4.985 -4.985,4.985c-2.745,0 -4.994,-2.208 -4.994,-4.985c0,-2.739 2.249,-4.963 4.994,-4.963Zm0,25.388c2.768,0 4.985,2.222 4.985,4.992c0,2.744 -2.217,4.987 -4.985,4.987c-2.741,0 -4.992,-2.243 -4.992,-4.987c0,-2.77 2.251,-4.992 4.992,-4.992Zm0,25.395c2.768,0 4.985,2.213 4.985,4.985c0,2.743 -2.217,4.985 -4.985,4.985c-2.741,0 -4.992,-2.242 -4.992,-4.985c0,-2.772 2.251,-4.985 4.992,-4.985Zm0,25.388c2.768,0 4.985,2.239 4.985,4.98c0,2.748 -2.217,4.997 -4.985,4.997c-2.741,0 -4.992,-2.249 -4.992,-4.997c0,-2.741 2.251,-4.98 4.992,-4.98Zm0,25.378c2.768,0 4.985,2.249 4.985,4.995c0,2.767 -2.217,4.992 -4.985,4.992c-2.741,0 -4.992,-2.225 -4.992,-4.992c0,-2.746 2.251,-4.995 4.992,-4.995Z" style="fill:none;fill-rule:nonzero;stroke:#050505;stroke-width:3px;"/><path d="M230.278,782.389c0,-1.302 0.546,-2.592 1.466,-3.52c0.93,-0.92 2.226,-1.477 3.526,-1.477c1.32,0 2.593,0.557 3.542,1.477c1.841,1.874 1.841,5.186 0,7.068c-0.949,0.914 -2.222,1.464 -3.542,1.464c-1.3,0 -2.596,-0.55 -3.526,-1.464c-0.92,-0.926 -1.466,-2.224 -1.466,-3.548Z" style="fill:none;fill-rule:nonzero;stroke:#050505;stroke-width:3px;"/><path d="M208.681,625.045c2.741,0 4.99,2.242 4.99,4.99c-0,2.759 -2.249,4.983 -4.99,4.983c-2.768,0 -4.99,-2.224 -4.99,-4.983c-0,-2.748 2.222,-4.99 4.99,-4.99Zm-0,25.388c2.741,0 4.99,2.246 4.99,4.985c-0,2.777 -2.249,4.985 -4.99,4.985c-2.768,0 -4.99,-2.208 -4.99,-4.985c-0,-2.739 2.222,-4.985 4.99,-4.985Zm-0,25.41c2.741,0 4.994,2.222 4.994,4.992c-0,2.744 -2.253,4.987 -4.994,4.987c-2.768,0 -4.99,-2.243 -4.99,-4.987c-0,-2.77 2.222,-4.992 4.99,-4.992Zm-0,25.395c2.741,0 4.994,2.213 4.994,4.985c-0,2.743 -2.253,4.985 -4.994,4.985c-2.768,0 -4.99,-2.242 -4.99,-4.985c-0,-2.772 2.222,-4.985 4.99,-4.985Zm-0,25.388c2.741,0 4.994,2.239 4.994,4.98c-0,2.748 -2.253,4.997 -4.994,4.997c-2.768,0 -4.99,-2.249 -4.99,-4.997c-0,-2.741 2.222,-4.98 4.99,-4.98Zm-0,25.378c2.741,0 4.994,2.249 4.994,4.995c-0,2.767 -2.253,4.992 -4.994,4.992c-2.768,0 -4.99,-2.225 -4.99,-4.992c-0,-2.746 2.222,-4.995 4.99,-4.995Z" style="fill:none;fill-rule:nonzero;stroke:#050505;stroke-width:3px;"/><path d="M203.691,782.389c-0,-1.302 0.526,-2.592 1.448,-3.52c0.949,-0.92 2.218,-1.477 3.542,-1.477c1.295,0 2.592,0.557 3.514,1.477c1.848,1.874 1.848,5.186 -0,7.068c-0.922,0.914 -2.219,1.442 -3.514,1.442c-1.324,0 -2.617,-0.528 -3.542,-1.442c-0.922,-0.954 -1.448,-2.224 -1.448,-3.548Z" style="fill:none;fill-rule:nonzero;stroke:#050505;stroke-width:3px;"/><path d="M181.217,625.045c2.777,0 4.987,2.242 4.987,4.99c-0,2.759 -2.21,4.983 -4.987,4.983c-2.736,0 -4.985,-2.224 -4.985,-4.983c-0,-2.748 2.249,-4.99 4.985,-4.99Zm-0,25.388c2.777,0 4.987,2.246 4.987,4.985c-0,2.777 -2.21,5.01 -4.987,5.01c-2.736,0 -4.985,-2.233 -4.985,-5.01c-0,-2.739 2.249,-4.985 4.985,-4.985Zm-0,25.41c2.777,0 4.987,2.222 4.987,4.992c-0,2.744 -2.21,4.987 -4.987,4.987c-2.736,0 -4.985,-2.243 -4.985,-4.987c-0,-2.77 2.249,-4.992 4.985,-4.992Zm-0,25.395c2.777,0 4.987,2.213 4.987,4.985c-0,2.743 -2.21,4.985 -4.987,4.985c-2.736,0 -4.985,-2.242 -4.985,-4.985c-0,-2.772 2.249,-4.985 4.985,-4.985Zm-0,25.388c2.777,0 4.987,2.219 4.987,4.98c-0,2.748 -2.21,4.997 -4.987,4.997c-2.736,0 -4.985,-2.249 -4.985,-4.997c-0,-2.761 2.249,-4.98 4.985,-4.98Zm-0,25.378c2.777,0 4.987,2.249 4.987,4.995c-0,2.767 -2.21,4.992 -4.987,4.992c-2.736,0 -4.985,-2.225 -4.985,-4.992c-0,-2.746 2.249,-4.995 4.985,-4.995Z" style="fill:none;fill-rule:nonzero;stroke:#050505;stroke-width:3px;"/><path d="M176.231,782.389c0,-1.302 0.519,-2.592 1.444,-3.52c0.952,-0.92 2.251,-1.477 3.541,-1.477c1.327,0 2.6,0.557 3.52,1.477c1.874,1.874 1.874,5.186 0.026,7.068c-0.946,0.914 -2.244,1.464 -3.546,1.464c-1.29,0 -2.589,-0.55 -3.51,-1.464c-0.956,-0.954 -1.475,-2.224 -1.475,-3.548Z" style="fill:none;fill-rule:nonzero;stroke:#050505;stroke-width:3px;"/><path d="M87.5,846.442c2.768,0 4.985,2.242 4.985,4.989c0,2.76 -2.217,4.984 -4.985,4.984c-2.745,0 -4.994,-2.224 -4.994,-4.984c0,-2.747 2.249,-4.989 4.994,-4.989Zm0,25.41c2.768,0 4.985,2.224 4.985,4.963c0,2.776 -2.217,4.985 -4.985,4.985c-2.745,0 -4.994,-2.209 -4.994,-4.985c0,-2.739 2.249,-4.963 4.994,-4.963Zm0,25.388c2.768,0 4.985,2.222 4.985,4.992c0,2.743 -2.217,4.987 -4.985,4.987c-2.741,0 -4.992,-2.244 -4.992,-4.987c0,-2.77 2.251,-4.992 4.992,-4.992Zm0,25.394c2.768,0 4.985,2.214 4.985,4.986c0,2.743 -2.217,4.985 -4.985,4.985c-2.741,0 -4.992,-2.242 -4.992,-4.985c0,-2.772 2.251,-4.986 4.992,-4.986Zm0,25.388c2.768,0 4.985,2.24 4.985,4.982c0,2.747 -2.217,4.996 -4.985,4.996c-2.741,0 -4.992,-2.249 -4.992,-4.996c0,-2.742 2.251,-4.982 4.992,-4.982Zm0,25.38c2.768,0 4.985,2.248 4.985,4.993c0,2.769 -2.217,4.992 -4.985,4.992c-2.741,0 -4.992,-2.223 -4.992,-4.992c0,-2.745 2.251,-4.993 4.992,-4.993Z" style="fill:none;fill-rule:nonzero;stroke:#050505;stroke-width:3px;"/><path d="M82.508,1003.79c-0,-1.302 0.546,-2.592 1.466,-3.52c0.93,-0.919 2.226,-1.476 3.526,-1.476c1.32,0 2.593,0.557 3.542,1.476c1.841,1.874 1.841,5.185 -0,7.068c-0.949,0.914 -2.222,1.464 -3.542,1.464c-1.3,0 -2.596,-0.55 -3.526,-1.464c-0.92,-0.927 -1.466,-2.224 -1.466,-3.548Z" style="fill:none;fill-rule:nonzero;stroke:#050505;stroke-width:3px;"/><path d="M60.91,846.442c2.741,0 4.99,2.242 4.99,4.989c0,2.76 -2.249,4.984 -4.99,4.984c-2.768,0 -4.99,-2.224 -4.99,-4.984c0,-2.747 2.222,-4.989 4.99,-4.989Zm0,25.388c2.741,0 4.99,2.246 4.99,4.985c0,2.776 -2.249,4.985 -4.99,4.985c-2.768,0 -4.99,-2.209 -4.99,-4.985c0,-2.739 2.222,-4.985 4.99,-4.985Zm0,25.41c2.741,0 4.994,2.222 4.994,4.992c0,2.743 -2.253,4.987 -4.994,4.987c-2.768,0 -4.99,-2.244 -4.99,-4.987c0,-2.77 2.222,-4.992 4.99,-4.992Zm0,25.394c2.741,0 4.994,2.214 4.994,4.986c0,2.743 -2.253,4.985 -4.994,4.985c-2.768,0 -4.99,-2.242 -4.99,-4.985c0,-2.772 2.222,-4.986 4.99,-4.986Zm0,25.388c2.741,0 4.994,2.24 4.994,4.982c0,2.747 -2.253,4.996 -4.994,4.996c-2.768,0 -4.99,-2.249 -4.99,-4.996c0,-2.742 2.222,-4.982 4.99,-4.982Zm0,25.38c2.741,0 4.994,2.248 4.994,4.993c0,2.769 -2.253,4.992 -4.994,4.992c-2.768,0 -4.99,-2.223 -4.99,-4.992c0,-2.745 2.222,-4.993 4.99,-4.993Z" style="fill:none;fill-rule:nonzero;stroke:#050505;stroke-width:3px;"/><path d="M55.92,1003.79c0,-1.302 0.526,-2.592 1.448,-3.52c0.949,-0.919 2.218,-1.476 3.542,-1.476c1.295,0 2.592,0.557 3.514,1.476c1.848,1.874 1.848,5.185 0,7.068c-0.922,0.914 -2.219,1.442 -3.514,1.442c-1.324,0 -2.617,-0.528 -3.542,-1.442c-0.922,-0.953 -1.448,-2.224 -1.448,-3.548Z" style="fill:none;fill-rule:nonzero;stroke:#050505;stroke-width:3px;"/><path d="M33.446,846.442c2.777,0 4.987,2.242 4.987,4.989c0,2.76 -2.21,4.984 -4.987,4.984c-2.736,0 -4.985,-2.224 -4.985,-4.984c0,-2.747 2.249,-4.989 4.985,-4.989Zm0,25.388c2.777,0 4.987,2.246 4.987,4.985c0,2.776 -2.21,5.01 -4.987,5.01c-2.736,0 -4.985,-2.234 -4.985,-5.01c0,-2.739 2.249,-4.985 4.985,-4.985Zm0,25.41c2.777,0 4.987,2.222 4.987,4.992c0,2.743 -2.21,4.987 -4.987,4.987c-2.736,0 -4.985,-2.244 -4.985,-4.987c0,-2.77 2.249,-4.992 4.985,-4.992Zm0,25.394c2.777,0 4.987,2.214 4.987,4.986c0,2.743 -2.21,4.985 -4.987,4.985c-2.736,0 -4.985,-2.242 -4.985,-4.985c0,-2.772 2.249,-4.986 4.985,-4.986Zm0,25.388c2.777,0 4.987,2.221 4.987,4.982c0,2.747 -2.21,4.996 -4.987,4.996c-2.736,0 -4.985,-2.249 -4.985,-4.996c0,-2.761 2.249,-4.982 4.985,-4.982Zm0,25.38c2.777,0 4.987,2.248 4.987,4.993c0,2.769 -2.21,4.992 -4.987,4.992c-2.736,0 -4.985,-2.223 -4.985,-4.992c0,-2.745 2.249,-4.993 4.985,-4.993Z" style="fill:none;fill-rule:nonzero;stroke:#050505;stroke-width:3px;"/><path d="M28.461,1003.79c-0,-1.302 0.519,-2.592 1.444,-3.52c0.952,-0.919 2.251,-1.476 3.541,-1.476c1.327,0 2.6,0.557 3.52,1.476c1.874,1.874 1.874,5.185 0.026,7.068c-0.946,0.914 -2.244,1.464 -3.546,1.464c-1.29,0 -2.589,-0.55 -3.51,-1.464c-0.956,-0.953 -1.475,-2.224 -1.475,-3.548Z" style="fill:none;fill-rule:nonzero;stroke:#050505;stroke-width:3px;"/><path d="M504.5,888.837c2.768,-0 4.985,2.242 4.985,4.989c0,2.76 -2.217,4.984 -4.985,4.984c-2.745,-0 -4.994,-2.224 -4.994,-4.984c0,-2.747 2.249,-4.989 4.994,-4.989Zm0,25.41c2.768,-0 4.985,2.224 4.985,4.963c0,2.776 -2.217,4.985 -4.985,4.985c-2.745,-0 -4.994,-2.209 -4.994,-4.985c0,-2.739 2.249,-4.963 4.994,-4.963Zm0,25.388c2.768,-0 4.985,2.222 4.985,4.992c0,2.743 -2.217,4.987 -4.985,4.987c-2.741,-0 -4.992,-2.244 -4.992,-4.987c0,-2.77 2.251,-4.992 4.992,-4.992Zm0,25.394c2.768,-0 4.985,2.214 4.985,4.986c0,2.743 -2.217,4.985 -4.985,4.985c-2.741,-0 -4.992,-2.242 -4.992,-4.985c0,-2.772 2.251,-4.986 4.992,-4.986Zm0,25.388c2.768,-0 4.985,2.24 4.985,4.982c0,2.747 -2.217,4.996 -4.985,4.996c-2.741,-0 -4.992,-2.249 -4.992,-4.996c0,-2.742 2.251,-4.982 4.992,-4.982Zm0,25.38c2.768,-0 4.985,2.248 4.985,4.993c0,2.769 -2.217,4.992 -4.985,4.992c-2.741,-0 -4.992,-2.223 -4.992,-4.992c0,-2.745 2.251,-4.993 4.992,-4.993Z" style="fill:none;fill-rule:nonzero;stroke:#050505;stroke-width:3px;"/><path d="M499.508,1046.18c-0,-1.302 0.546,-2.592 1.466,-3.52c0.93,-0.919 2.226,-1.476 3.526,-1.476c1.32,-0 2.593,0.557 3.542,1.476c1.841,1.874 1.841,5.185 -0,7.068c-0.949,0.914 -2.222,1.464 -3.542,1.464c-1.3,-0 -2.596,-0.55 -3.526,-1.464c-0.92,-0.927 -1.466,-2.224 -1.466,-3.548Z" style="fill:none;fill-rule:nonzero;stroke:#050505;stroke-width:3px;"/><path d="M477.91,888.837c2.741,-0 4.99,2.242 4.99,4.989c0,2.76 -2.249,4.984 -4.99,4.984c-2.768,-0 -4.99,-2.224 -4.99,-4.984c0,-2.747 2.222,-4.989 4.99,-4.989Zm0,25.388c2.741,-0 4.99,2.246 4.99,4.985c0,2.776 -2.249,4.985 -4.99,4.985c-2.768,-0 -4.99,-2.209 -4.99,-4.985c0,-2.739 2.222,-4.985 4.99,-4.985Zm0,25.41c2.741,-0 4.994,2.222 4.994,4.992c0,2.743 -2.253,4.987 -4.994,4.987c-2.768,-0 -4.99,-2.244 -4.99,-4.987c0,-2.77 2.222,-4.992 4.99,-4.992Zm0,25.394c2.741,-0 4.994,2.214 4.994,4.986c0,2.743 -2.253,4.985 -4.994,4.985c-2.768,-0 -4.99,-2.242 -4.99,-4.985c0,-2.772 2.222,-4.986 4.99,-4.986Zm0,25.388c2.741,-0 4.994,2.24 4.994,4.982c0,2.747 -2.253,4.996 -4.994,4.996c-2.768,-0 -4.99,-2.249 -4.99,-4.996c0,-2.742 2.222,-4.982 4.99,-4.982Zm0,25.38c2.741,-0 4.994,2.248 4.994,4.993c0,2.769 -2.253,4.992 -4.994,4.992c-2.768,-0 -4.99,-2.223 -4.99,-4.992c0,-2.745 2.222,-4.993 4.99,-4.993Z" style="fill:none;fill-rule:nonzero;stroke:#050505;stroke-width:3px;"/><path d="M472.92,1046.18c0,-1.302 0.526,-2.592 1.448,-3.52c0.949,-0.919 2.218,-1.476 3.542,-1.476c1.295,-0 2.592,0.557 3.514,1.476c1.848,1.874 1.848,5.185 0,7.068c-0.922,0.914 -2.219,1.442 -3.514,1.442c-1.324,-0 -2.617,-0.528 -3.542,-1.442c-0.922,-0.953 -1.448,-2.224 -1.448,-3.548Z" style="fill:none;fill-rule:nonzero;stroke:#050505;stroke-width:3px;"/><path d="M450.446,888.837c2.777,-0 4.987,2.242 4.987,4.989c0,2.76 -2.21,4.984 -4.987,4.984c-2.736,-0 -4.985,-2.224 -4.985,-4.984c0,-2.747 2.249,-4.989 4.985,-4.989Zm0,25.388c2.777,-0 4.987,2.246 4.987,4.985c0,2.776 -2.21,5.01 -4.987,5.01c-2.736,-0 -4.985,-2.234 -4.985,-5.01c0,-2.739 2.249,-4.985 4.985,-4.985Zm0,25.41c2.777,-0 4.987,2.222 4.987,4.992c0,2.743 -2.21,4.987 -4.987,4.987c-2.736,-0 -4.985,-2.244 -4.985,-4.987c0,-2.77 2.249,-4.992 4.985,-4.992Zm0,25.394c2.777,-0 4.987,2.214 4.987,4.986c0,2.743 -2.21,4.985 -4.987,4.985c-2.736,-0 -4.985,-2.242 -4.985,-4.985c0,-2.772 2.249,-4.986 4.985,-4.986Zm0,25.388c2.777,-0 4.987,2.221 4.987,4.982c0,2.747 -2.21,4.996 -4.987,4.996c-2.736,-0 -4.985,-2.249 -4.985,-4.996c0,-2.761 2.249,-4.982 4.985,-4.982Zm0,25.38c2.777,-0 4.987,2.248 4.987,4.993c0,2.769 -2.21,4.992 -4.987,4.992c-2.736,-0 -4.985,-2.223 -4.985,-4.992c0,-2.745 2.249,-4.993 4.985,-4.993Z" style="fill:none;fill-rule:nonzero;stroke:#050505;stroke-width:3px;"/><path d="M445.461,1046.18c-0,-1.302 0.519,-2.592 1.444,-3.52c0.952,-0.919 2.251,-1.476 3.541,-1.476c1.327,-0 2.6,0.557 3.52,1.476c1.874,1.874 1.874,5.185 0.026,7.068c-0.946,0.914 -2.244,1.464 -3.546,1.464c-1.29,-0 -2.589,-0.55 -3.51,-1.464c-0.956,-0.953 -1.475,-2.224 -1.475,-3.548Z" style="fill:none;fill-rule:nonzero;stroke:#050505;stroke-width:3px;"/><path d="M316.651,554.692c0,-12.556 -10.194,-22.75 -22.75,-22.75c-12.556,0 -22.75,10.194 -22.75,22.75c0,12.556 10.194,22.75 22.75,22.75c12.556,0 22.75,-10.194 22.75,-22.75Z" style="fill:none;stroke:#050505;stroke-width:3px;"/><path d="M333.651,554.692c0,-21.938 -17.811,-39.75 -39.75,-39.75c-21.938,0 -39.75,17.812 -39.75,39.75c0,21.939 17.812,39.75 39.75,39.75c21.939,0 39.75,-17.811 39.75,-39.75Z" style="fill:none;stroke:#050505;stroke-width:3px;"/><path d="M478.184,766.274c-0,-12.556 -10.194,-22.75 -22.75,-22.75c-12.556,-0 -22.75,10.194 -22.75,22.75c-0,12.556 10.194,22.75 22.75,22.75c12.556,-0 22.75,-10.194 22.75,-22.75Z" style="fill:none;stroke:#050505;stroke-width:3px;"/><path d="M495.184,766.274c-0,-21.939 -17.812,-39.75 -39.75,-39.75c-21.939,-0 -39.75,17.811 -39.75,39.75c-0,21.939 17.811,39.75 39.75,39.75c21.938,-0 39.75,-17.811 39.75,-39.75Z" style="fill:none;stroke:#050505;stroke-width:3px;"/><path d="M316.651,1095.25c0,-12.556 -10.194,-22.75 -22.75,-22.75c-12.556,0 -22.75,10.194 -22.75,22.75c0,12.556 10.194,22.75 22.75,22.75c12.556,0 22.75,-10.194 22.75,-22.75Z" style="fill:none;stroke:#050505;stroke-width:3px;"/><path d="M333.651,1095.25c0,-21.939 -17.811,-39.75 -39.75,-39.75c-21.938,0 -39.75,17.811 -39.75,39.75c0,21.939 17.812,39.75 39.75,39.75c21.939,0 39.75,-17.811 39.75,-39.75Z" style="fill:none;stroke:#050505;stroke-width:3px;"/><path d="M467.5,619.045c0,3.314 -2.687,6 -6,6l-85.333,0c-3.314,0 -6,-2.686 -6,-6l0,-4.378c0,-3.314 2.686,-6 6,-6l85.333,0c3.313,0 6,2.686 6,6l0,4.378Z" style="fill:none;fill-rule:nonzero;stroke:#050505;stroke-width:3px;"/><path d="M408.329,653.817c0,3.314 -2.686,6 -6,6l-85.333,-0c-3.313,-0 -6,-2.686 -6,-6l0,-4.378c0,-3.314 2.687,-6 6,-6l85.333,-0c3.314,-0 6,2.686 6,6l0,4.378Z" style="fill:none;fill-rule:nonzero;stroke:#050505;stroke-width:3px;"/><path d="M187.749,1035.56c-3.313,-0.001 -6,-2.687 -6,-6.001l0,-85.333c0,-3.314 2.687,-6 6,-6l4.379,0c3.313,0 6,2.686 6,6l0,85.333c0,3.314 -2.687,6 -6,6l-4.379,0Z" style="fill:none;fill-rule:nonzero;stroke:#050505;stroke-width:3px;"/><path d="M152.978,976.391c-3.313,-0 -6,-2.686 -6,-6l0,-85.333c0,-3.313 2.687,-6 6,-6l4.379,-0c3.314,-0 6,2.687 6,6l0,85.333c0,3.314 -2.687,6 -6,6l-4.379,-0Z" style="fill:none;fill-rule:nonzero;stroke:#050505;stroke-width:3px;"/><path d="M56.885,787.441l45.418,-32.948l5.825,55.807l-51.243,-22.859Z" style="fill:none;fill-rule:nonzero;stroke:#050505;stroke-width:3px;"/><path d="M302.701,766.274l7.772,-55.57l44.239,34.517l-52.011,21.053Z" style="fill:none;fill-rule:nonzero;stroke:#050505;stroke-width:3px;"/></g></g><clipPath id="_clip9"><rect x="540" y="0" width="540" height="540" clip-rule="nonzero"/></clipPath><g clip-path="url(#_clip9)"><path d="M654.942,125.405l-34.947,-34.947l34.947,-34.948l-40.818,-40.818l-34.947,34.947l-34.947,-34.947l-40.818,40.818l34.947,34.948l-34.947,34.947l40.818,40.818l34.947,-34.947l34.947,34.947l40.818,-40.818Z" style="fill:none;fill-rule:nonzero;stroke:#000;stroke-width:3px;"/></g><path d="M595.783,45.686l-34.947,-34.947l-20.836,20.836l-0,39.964l14.965,14.965l-14.965,14.965l-0,39.965l20.836,20.836l34.947,-34.948l34.948,34.948l40.818,-40.818l-34.947,-34.948l34.947,-34.947l-40.818,-40.818l-34.948,34.947Z" style="fill:#fff;fill-rule:nonzero;"/><g><clipPath id="_clip10"><rect x="540" y="0" width="540" height="540" clip-rule="nonzero"/></clipPath><g clip-path="url(#_clip10)"><path d="M671.549,121.451l-34.947,-34.947l34.947,-34.948l-40.818,-40.817l-34.948,34.947l-34.947,-34.947l-40.818,40.817l34.948,34.948l-34.948,34.947l40.818,40.818l34.947,-34.947l34.948,34.947l40.818,-40.818Z" style="fill:none;fill-rule:nonzero;stroke:#000;stroke-width:3px;"/><path d="M931.724,401.155l-34.947,-34.947l34.947,-34.948l-40.818,-40.818l-34.948,34.947l-34.947,-34.947l-40.818,40.818l34.947,34.948l-34.947,34.947l40.818,40.818l34.947,-34.947l34.948,34.947l40.818,-40.818Z" style="fill:none;fill-rule:nonzero;stroke:#000;stroke-width:3px;"/><path d="M948.329,397.201l-34.947,-34.947l34.947,-34.948l-40.818,-40.817l-34.947,34.947l-34.947,-34.947l-40.818,40.817l34.947,34.948l-34.947,34.947l40.818,40.818l34.947,-34.947l34.947,34.947l40.818,-40.818Z" style="fill:#feec70;fill-rule:nonzero;stroke:#000;stroke-width:3px;"/><clipPath id="_clip11"><rect x="540" y="0" width="540" height="540" clip-rule="nonzero"/></clipPath><g clip-path="url(#_clip11)"><path d="M1194.94,125.405l-34.947,-34.947l34.947,-34.948l-40.818,-40.818l-34.947,34.947l-34.947,-34.947l-40.818,40.818l34.947,34.948l-34.947,34.947l40.818,40.818l34.947,-34.947l34.947,34.947l40.818,-40.818Z" style="fill:none;fill-rule:nonzero;stroke:#000;stroke-width:3px;"/></g></g></g><path d="M1060.02,51.556l19.982,19.982l0,-39.964l-19.982,19.982Zm0,69.895l19.982,19.982l0,-39.964l-19.982,19.982Z" style="fill:#fff;fill-rule:nonzero;"/><g><clipPath id="_clip12"><rect x="540" y="0" width="540" height="540" clip-rule="nonzero"/></clipPath><g clip-path="url(#_clip12)"><path d="M1211.55,121.451l-34.947,-34.947l34.947,-34.948l-40.818,-40.817l-34.948,34.947l-34.947,-34.947l-40.818,40.817l34.948,34.948l-34.948,34.947l40.818,40.818l34.947,-34.947l34.948,34.947l40.818,-40.818Z" style="fill:none;fill-rule:nonzero;stroke:#000;stroke-width:3px;"/><path d="M775.271,85.045c2.768,0 4.985,2.242 4.985,4.99c-0,2.759 -2.217,4.983 -4.986,4.983c-2.745,0 -4.994,-2.224 -4.994,-4.983c0,-2.748 2.25,-4.99 4.995,-4.99Zm-0,25.41c2.768,0 4.985,2.224 4.985,4.963c-0,2.777 -2.217,4.985 -4.986,4.985c-2.745,0 -4.994,-2.208 -4.994,-4.985c0,-2.739 2.25,-4.963 4.995,-4.963Zm-0,25.388c2.768,0 4.985,2.222 4.985,4.992c-0,2.744 -2.217,4.987 -4.986,4.987c-2.74,0 -4.991,-2.243 -4.991,-4.987c-0,-2.77 2.25,-4.992 4.991,-4.992Zm0,25.395c2.769,0 4.986,2.213 4.986,4.985c-0,2.743 -2.217,4.985 -4.986,4.985c-2.74,0 -4.991,-2.242 -4.991,-4.985c-0,-2.772 2.25,-4.985 4.991,-4.985Zm0,25.388c2.769,0 4.986,2.239 4.986,4.98c-0,2.748 -2.217,4.997 -4.986,4.997c-2.74,0 -4.991,-2.249 -4.991,-4.997c-0,-2.741 2.25,-4.98 4.991,-4.98Zm0,25.378c2.769,0 4.986,2.249 4.986,4.995c-0,2.767 -2.217,4.992 -4.986,4.992c-2.74,0 -4.991,-2.225 -4.991,-4.992c-0,-2.746 2.25,-4.995 4.991,-4.995Z" style="fill:none;fill-rule:nonzero;stroke:#050505;stroke-width:3px;"/><path d="M770.278,242.389c0,-1.302 0.546,-2.592 1.466,-3.52c0.93,-0.92 2.226,-1.477 3.526,-1.477c1.32,0 2.593,0.557 3.542,1.477c1.841,1.874 1.841,5.186 0,7.068c-0.949,0.914 -2.222,1.464 -3.542,1.464c-1.3,0 -2.596,-0.55 -3.526,-1.464c-0.92,-0.926 -1.466,-2.224 -1.466,-3.548Z" style="fill:none;fill-rule:nonzero;stroke:#050505;stroke-width:3px;"/><path d="M748.681,85.045c2.741,0 4.99,2.242 4.99,4.99c-0,2.759 -2.249,4.983 -4.99,4.983c-2.768,0 -4.99,-2.224 -4.99,-4.983c-0,-2.748 2.222,-4.99 4.99,-4.99Zm-0,25.388c2.741,0 4.99,2.246 4.99,4.985c-0,2.777 -2.249,4.985 -4.99,4.985c-2.768,0 -4.99,-2.208 -4.99,-4.985c-0,-2.739 2.222,-4.985 4.99,-4.985Zm-0,25.41c2.741,0 4.994,2.222 4.994,4.992c-0,2.744 -2.253,4.987 -4.994,4.987c-2.768,0 -4.99,-2.243 -4.99,-4.987c-0,-2.77 2.222,-4.992 4.99,-4.992Zm-0,25.395c2.741,0 4.994,2.213 4.994,4.985c-0,2.743 -2.253,4.985 -4.994,4.985c-2.768,0 -4.99,-2.242 -4.99,-4.985c-0,-2.772 2.222,-4.985 4.99,-4.985Zm-0,25.388c2.741,0 4.994,2.239 4.994,4.98c-0,2.748 -2.253,4.997 -4.994,4.997c-2.768,0 -4.99,-2.249 -4.99,-4.997c-0,-2.741 2.222,-4.98 4.99,-4.98Zm-0,25.378c2.741,0 4.994,2.249 4.994,4.995c-0,2.767 -2.253,4.992 -4.994,4.992c-2.768,0 -4.99,-2.225 -4.99,-4.992c-0,-2.746 2.222,-4.995 4.99,-4.995Z" style="fill:none;fill-rule:nonzero;stroke:#050505;stroke-width:3px;"/><path d="M743.691,242.389c-0,-1.302 0.526,-2.592 1.448,-3.52c0.949,-0.92 2.218,-1.477 3.542,-1.477c1.295,0 2.592,0.557 3.514,1.477c1.848,1.874 1.848,5.186 -0,7.068c-0.922,0.914 -2.219,1.442 -3.514,1.442c-1.324,0 -2.617,-0.528 -3.542,-1.442c-0.922,-0.954 -1.448,-2.224 -1.448,-3.548Z" style="fill:none;fill-rule:nonzero;stroke:#050505;stroke-width:3px;"/><path d="M721.217,85.045c2.777,0 4.987,2.242 4.987,4.99c-0,2.759 -2.21,4.983 -4.987,4.983c-2.736,0 -4.985,-2.224 -4.985,-4.983c-0,-2.748 2.249,-4.99 4.985,-4.99Zm-0,25.388c2.777,0 4.987,2.246 4.987,4.985c-0,2.777 -2.21,5.01 -4.987,5.01c-2.736,0 -4.985,-2.233 -4.985,-5.01c-0,-2.739 2.249,-4.985 4.985,-4.985Zm-0,25.41c2.777,0 4.987,2.222 4.987,4.992c-0,2.744 -2.21,4.987 -4.987,4.987c-2.736,0 -4.985,-2.243 -4.985,-4.987c-0,-2.77 2.249,-4.992 4.985,-4.992Zm-0,25.395c2.777,0 4.987,2.213 4.987,4.985c-0,2.743 -2.21,4.985 -4.987,4.985c-2.736,0 -4.985,-2.242 -4.985,-4.985c-0,-2.772 2.249,-4.985 4.985,-4.985Zm-0,25.388c2.777,0 4.987,2.219 4.987,4.98c-0,2.748 -2.21,4.997 -4.987,4.997c-2.736,0 -4.985,-2.249 -4.985,-4.997c-0,-2.761 2.249,-4.98 4.985,-4.98Zm-0,25.378c2.777,0 4.987,2.249 4.987,4.995c-0,2.767 -2.21,4.992 -4.987,4.992c-2.736,0 -4.985,-2.225 -4.985,-4.992c-0,-2.746 2.249,-4.995 4.985,-4.995Z" style="fill:none;fill-rule:nonzero;stroke:#050505;stroke-width:3px;"/><path d="M716.231,242.389c0,-1.302 0.519,-2.592 1.444,-3.52c0.952,-0.92 2.251,-1.477 3.541,-1.477c1.327,0 2.6,0.557 3.52,1.477c1.874,1.874 1.874,5.186 0.026,7.068c-0.946,0.914 -2.244,1.464 -3.546,1.464c-1.29,0 -2.589,-0.55 -3.51,-1.464c-0.956,-0.954 -1.475,-2.224 -1.475,-3.548Z" style="fill:none;fill-rule:nonzero;stroke:#050505;stroke-width:3px;"/><path d="M627.5,306.442c2.768,0 4.985,2.242 4.985,4.989c0,2.76 -2.217,4.984 -4.985,4.984c-2.745,0 -4.994,-2.224 -4.994,-4.984c0,-2.747 2.249,-4.989 4.994,-4.989Zm0,25.41c2.768,0 4.985,2.224 4.985,4.963c0,2.776 -2.217,4.985 -4.985,4.985c-2.745,0 -4.994,-2.209 -4.994,-4.985c0,-2.739 2.249,-4.963 4.994,-4.963Zm0,25.388c2.768,0 4.985,2.222 4.985,4.992c0,2.743 -2.217,4.987 -4.985,4.987c-2.741,0 -4.992,-2.244 -4.992,-4.987c0,-2.77 2.251,-4.992 4.992,-4.992Zm0,25.394c2.768,0 4.985,2.214 4.985,4.986c0,2.743 -2.217,4.985 -4.985,4.985c-2.741,0 -4.992,-2.242 -4.992,-4.985c0,-2.772 2.251,-4.986 4.992,-4.986Zm0,25.388c2.768,0 4.985,2.24 4.985,4.982c0,2.747 -2.217,4.996 -4.985,4.996c-2.741,0 -4.992,-2.249 -4.992,-4.996c0,-2.742 2.251,-4.982 4.992,-4.982Zm0,25.38c2.768,0 4.985,2.248 4.985,4.993c0,2.769 -2.217,4.992 -4.985,4.992c-2.741,0 -4.992,-2.223 -4.992,-4.992c0,-2.745 2.251,-4.993 4.992,-4.993Z" style="fill:none;fill-rule:nonzero;stroke:#050505;stroke-width:3px;"/><path d="M622.508,463.786c-0,-1.302 0.546,-2.592 1.466,-3.52c0.93,-0.919 2.226,-1.476 3.526,-1.476c1.32,0 2.593,0.557 3.542,1.476c1.841,1.874 1.841,5.185 -0,7.068c-0.949,0.914 -2.222,1.464 -3.542,1.464c-1.3,0 -2.596,-0.55 -3.526,-1.464c-0.92,-0.927 -1.466,-2.224 -1.466,-3.548Z" style="fill:none;fill-rule:nonzero;stroke:#050505;stroke-width:3px;"/><path d="M600.91,306.442c2.741,0 4.99,2.242 4.99,4.989c0,2.76 -2.249,4.984 -4.99,4.984c-2.768,0 -4.99,-2.224 -4.99,-4.984c0,-2.747 2.222,-4.989 4.99,-4.989Zm0,25.388c2.741,0 4.99,2.246 4.99,4.985c0,2.776 -2.249,4.985 -4.99,4.985c-2.768,0 -4.99,-2.209 -4.99,-4.985c0,-2.739 2.222,-4.985 4.99,-4.985Zm0,25.41c2.741,0 4.994,2.222 4.994,4.992c0,2.743 -2.253,4.987 -4.994,4.987c-2.768,0 -4.99,-2.244 -4.99,-4.987c0,-2.77 2.222,-4.992 4.99,-4.992Zm0,25.394c2.741,0 4.994,2.214 4.994,4.986c0,2.743 -2.253,4.985 -4.994,4.985c-2.768,0 -4.99,-2.242 -4.99,-4.985c0,-2.772 2.222,-4.986 4.99,-4.986Zm0,25.388c2.741,0 4.994,2.24 4.994,4.982c0,2.747 -2.253,4.996 -4.994,4.996c-2.768,0 -4.99,-2.249 -4.99,-4.996c0,-2.742 2.222,-4.982 4.99,-4.982Zm0,25.38c2.741,0 4.994,2.248 4.994,4.993c0,2.769 -2.253,4.992 -4.994,4.992c-2.768,0 -4.99,-2.223 -4.99,-4.992c0,-2.745 2.222,-4.993 4.99,-4.993Z" style="fill:none;fill-rule:nonzero;stroke:#050505;stroke-width:3px;"/><path d="M595.92,463.786c0,-1.302 0.526,-2.592 1.448,-3.52c0.949,-0.919 2.218,-1.476 3.542,-1.476c1.295,0 2.592,0.557 3.514,1.476c1.848,1.874 1.848,5.185 0,7.068c-0.922,0.914 -2.219,1.442 -3.514,1.442c-1.324,0 -2.617,-0.528 -3.542,-1.442c-0.922,-0.953 -1.448,-2.224 -1.448,-3.548Z" style="fill:none;fill-rule:nonzero;stroke:#050505;stroke-width:3px;"/><path d="M573.446,306.442c2.777,0 4.987,2.242 4.987,4.989c0,2.76 -2.21,4.984 -4.987,4.984c-2.736,0 -4.985,-2.224 -4.985,-4.984c0,-2.747 2.249,-4.989 4.985,-4.989Zm0,25.388c2.777,0 4.987,2.246 4.987,4.985c0,2.776 -2.21,5.01 -4.987,5.01c-2.736,0 -4.985,-2.234 -4.985,-5.01c0,-2.739 2.249,-4.985 4.985,-4.985Zm0,25.41c2.777,0 4.987,2.222 4.987,4.992c0,2.743 -2.21,4.987 -4.987,4.987c-2.736,0 -4.985,-2.244 -4.985,-4.987c0,-2.77 2.249,-4.992 4.985,-4.992Zm0,25.394c2.777,0 4.987,2.214 4.987,4.986c0,2.743 -2.21,4.985 -4.987,4.985c-2.736,0 -4.985,-2.242 -4.985,-4.985c0,-2.772 2.249,-4.986 4.985,-4.986Zm0,25.388c2.777,0 4.987,2.221 4.987,4.982c0,2.747 -2.21,4.996 -4.987,4.996c-2.736,0 -4.985,-2.249 -4.985,-4.996c0,-2.761 2.249,-4.982 4.985,-4.982Zm0,25.38c2.777,0 4.987,2.248 4.987,4.993c0,2.769 -2.21,4.992 -4.987,4.992c-2.736,0 -4.985,-2.223 -4.985,-4.992c0,-2.745 2.249,-4.993 4.985,-4.993Z" style="fill:none;fill-rule:nonzero;stroke:#050505;stroke-width:3px;"/><path d="M568.461,463.786c-0,-1.302 0.519,-2.592 1.444,-3.52c0.952,-0.919 2.251,-1.476 3.541,-1.476c1.327,0 2.6,0.557 3.52,1.476c1.874,1.874 1.874,5.185 0.026,7.068c-0.946,0.914 -2.244,1.464 -3.546,1.464c-1.29,0 -2.589,-0.55 -3.51,-1.464c-0.956,-0.953 -1.475,-2.224 -1.475,-3.548Z" style="fill:none;fill-rule:nonzero;stroke:#050505;stroke-width:3px;"/><path d="M1044.5,348.837c2.768,-0 4.985,2.242 4.985,4.989c0,2.76 -2.217,4.984 -4.985,4.984c-2.745,-0 -4.994,-2.224 -4.994,-4.984c0,-2.747 2.249,-4.989 4.994,-4.989Zm0,25.41c2.768,-0 4.985,2.224 4.985,4.963c0,2.776 -2.217,4.985 -4.985,4.985c-2.745,-0 -4.994,-2.209 -4.994,-4.985c0,-2.739 2.249,-4.963 4.994,-4.963Zm0,25.388c2.768,-0 4.985,2.222 4.985,4.992c0,2.743 -2.217,4.987 -4.985,4.987c-2.741,-0 -4.992,-2.244 -4.992,-4.987c0,-2.77 2.251,-4.992 4.992,-4.992Zm0,25.394c2.768,-0 4.985,2.214 4.985,4.986c0,2.743 -2.217,4.985 -4.985,4.985c-2.741,-0 -4.992,-2.242 -4.992,-4.985c0,-2.772 2.251,-4.986 4.992,-4.986Zm0,25.388c2.768,-0 4.985,2.24 4.985,4.982c0,2.747 -2.217,4.996 -4.985,4.996c-2.741,-0 -4.992,-2.249 -4.992,-4.996c0,-2.742 2.251,-4.982 4.992,-4.982Zm0,25.38c2.768,-0 4.985,2.248 4.985,4.993c0,2.769 -2.217,4.992 -4.985,4.992c-2.741,-0 -4.992,-2.223 -4.992,-4.992c0,-2.745 2.251,-4.993 4.992,-4.993Z" style="fill:none;fill-rule:nonzero;stroke:#050505;stroke-width:3px;"/><path d="M1039.51,506.181c-0,-1.302 0.546,-2.592 1.466,-3.52c0.93,-0.919 2.226,-1.476 3.526,-1.476c1.32,-0 2.593,0.557 3.542,1.476c1.841,1.874 1.841,5.185 -0,7.068c-0.949,0.914 -2.222,1.464 -3.542,1.464c-1.3,-0 -2.596,-0.55 -3.526,-1.464c-0.92,-0.927 -1.466,-2.224 -1.466,-3.548Z" style="fill:none;fill-rule:nonzero;stroke:#050505;stroke-width:3px;"/><path d="M1017.91,348.837c2.741,-0 4.99,2.242 4.99,4.989c0,2.76 -2.249,4.984 -4.99,4.984c-2.768,-0 -4.99,-2.224 -4.99,-4.984c0,-2.747 2.222,-4.989 4.99,-4.989Zm0,25.388c2.741,-0 4.99,2.246 4.99,4.985c0,2.776 -2.249,4.985 -4.99,4.985c-2.768,-0 -4.99,-2.209 -4.99,-4.985c0,-2.739 2.222,-4.985 4.99,-4.985Zm0,25.41c2.741,-0 4.994,2.222 4.994,4.992c0,2.743 -2.253,4.987 -4.994,4.987c-2.768,-0 -4.99,-2.244 -4.99,-4.987c0,-2.77 2.222,-4.992 4.99,-4.992Zm0,25.394c2.741,-0 4.994,2.214 4.994,4.986c0,2.743 -2.253,4.985 -4.994,4.985c-2.768,-0 -4.99,-2.242 -4.99,-4.985c0,-2.772 2.222,-4.986 4.99,-4.986Zm0,25.388c2.741,-0 4.994,2.24 4.994,4.982c0,2.747 -2.253,4.996 -4.994,4.996c-2.768,-0 -4.99,-2.249 -4.99,-4.996c0,-2.742 2.222,-4.982 4.99,-4.982Zm0,25.38c2.741,-0 4.994,2.248 4.994,4.993c0,2.769 -2.253,4.992 -4.994,4.992c-2.768,-0 -4.99,-2.223 -4.99,-4.992c0,-2.745 2.222,-4.993 4.99,-4.993Z" style="fill:none;fill-rule:nonzero;stroke:#050505;stroke-width:3px;"/><path d="M1012.92,506.181c0,-1.302 0.526,-2.592 1.448,-3.52c0.949,-0.919 2.218,-1.476 3.542,-1.476c1.295,-0 2.592,0.557 3.514,1.476c1.848,1.874 1.848,5.185 0,7.068c-0.922,0.914 -2.219,1.442 -3.514,1.442c-1.324,-0 -2.617,-0.528 -3.542,-1.442c-0.922,-0.953 -1.448,-2.224 -1.448,-3.548Z" style="fill:none;fill-rule:nonzero;stroke:#050505;stroke-width:3px;"/><path d="M990.446,348.837c2.777,-0 4.987,2.242 4.987,4.989c0,2.76 -2.21,4.984 -4.987,4.984c-2.736,-0 -4.985,-2.224 -4.985,-4.984c0,-2.747 2.249,-4.989 4.985,-4.989Zm0,25.388c2.777,-0 4.987,2.246 4.987,4.985c0,2.776 -2.21,5.01 -4.987,5.01c-2.736,-0 -4.985,-2.234 -4.985,-5.01c0,-2.739 2.249,-4.985 4.985,-4.985Zm0,25.41c2.777,-0 4.987,2.222 4.987,4.992c0,2.743 -2.21,4.987 -4.987,4.987c-2.736,-0 -4.985,-2.244 -4.985,-4.987c0,-2.77 2.249,-4.992 4.985,-4.992Zm0,25.394c2.777,-0 4.987,2.214 4.987,4.986c0,2.743 -2.21,4.985 -4.987,4.985c-2.736,-0 -4.985,-2.242 -4.985,-4.985c0,-2.772 2.249,-4.986 4.985,-4.986Zm0,25.388c2.777,-0 4.987,2.221 4.987,4.982c0,2.747 -2.21,4.996 -4.987,4.996c-2.736,-0 -4.985,-2.249 -4.985,-4.996c0,-2.761 2.249,-4.982 4.985,-4.982Zm0,25.38c2.777,-0 4.987,2.248 4.987,4.993c0,2.769 -2.21,4.992 -4.987,4.992c-2.736,-0 -4.985,-2.223 -4.985,-4.992c0,-2.745 2.249,-4.993 4.985,-4.993Z" style="fill:none;fill-rule:nonzero;stroke:#050505;stroke-width:3px;"/><path d="M985.461,506.181c-0,-1.302 0.519,-2.592 1.444,-3.52c0.952,-0.919 2.251,-1.476 3.541,-1.476c1.327,-0 2.6,0.557 3.52,1.476c1.874,1.874 1.874,5.185 0.026,7.068c-0.946,0.914 -2.244,1.464 -3.546,1.464c-1.29,-0 -2.589,-0.55 -3.51,-1.464c-0.956,-0.953 -1.475,-2.224 -1.475,-3.548Z" style="fill:none;fill-rule:nonzero;stroke:#050505;stroke-width:3px;"/><path d="M856.651,14.692c0,-12.556 -10.194,-22.75 -22.75,-22.75c-12.556,0 -22.75,10.194 -22.75,22.75c0,12.556 10.194,22.75 22.75,22.75c12.556,0 22.75,-10.194 22.75,-22.75Z" style="fill:none;stroke:#050505;stroke-width:3px;"/><path d="M873.651,14.692c0,-21.938 -17.811,-39.75 -39.75,-39.75c-21.938,0 -39.75,17.812 -39.75,39.75c0,21.939 17.812,39.75 39.75,39.75c21.939,0 39.75,-17.811 39.75,-39.75Z" style="fill:none;stroke:#050505;stroke-width:3px;"/><path d="M1018.18,226.274c-0,-12.556 -10.194,-22.75 -22.75,-22.75c-12.556,-0 -22.75,10.194 -22.75,22.75c-0,12.556 10.194,22.75 22.75,22.75c12.556,-0 22.75,-10.194 22.75,-22.75Z" style="fill:none;stroke:#050505;stroke-width:3px;"/><path d="M1035.18,226.274c-0,-21.939 -17.812,-39.75 -39.75,-39.75c-21.939,-0 -39.75,17.811 -39.75,39.75c-0,21.939 17.811,39.75 39.75,39.75c21.938,-0 39.75,-17.811 39.75,-39.75Z" style="fill:none;stroke:#050505;stroke-width:3px;"/><path d="M856.651,555.25c0,-12.556 -10.194,-22.75 -22.75,-22.75c-12.556,0 -22.75,10.194 -22.75,22.75c0,12.556 10.194,22.75 22.75,22.75c12.556,0 22.75,-10.194 22.75,-22.75Z" style="fill:none;stroke:#050505;stroke-width:3px;"/><path d="M873.651,555.25c0,-21.939 -17.811,-39.75 -39.75,-39.75c-21.938,0 -39.75,17.811 -39.75,39.75c0,21.939 17.812,39.75 39.75,39.75c21.939,0 39.75,-17.811 39.75,-39.75Z" style="fill:none;stroke:#050505;stroke-width:3px;"/><path d="M1007.5,79.045c0,3.314 -2.687,6 -6,6l-85.333,0c-3.314,0 -6,-2.686 -6,-6l0,-4.378c0,-3.314 2.686,-6 6,-6l85.333,0c3.313,0 6,2.686 6,6l0,4.378Z" style="fill:none;fill-rule:nonzero;stroke:#050505;stroke-width:3px;"/><path d="M948.329,113.817c0,3.314 -2.686,6 -6,6l-85.333,-0c-3.313,-0 -6,-2.686 -6,-6l0,-4.378c0,-3.314 2.687,-6 6,-6l85.333,-0c3.314,-0 6,2.686 6,6l0,4.378Z" style="fill:none;fill-rule:nonzero;stroke:#050505;stroke-width:3px;"/><path d="M727.75,495.562c-3.313,-0 -6,-2.686 -6,-6l-0,-85.333c-0,-3.315 2.687,-6 6,-6l4.379,-0c3.313,-0 6,2.685 6,6l-0,85.332c-0,3.315 -2.688,6 -6,6l-4.38,0Z" style="fill:none;fill-rule:nonzero;stroke:#050505;stroke-width:3px;"/><path d="M692.978,436.391c-3.313,-0 -6,-2.686 -6,-6l0,-85.333c0,-3.313 2.687,-6 6,-6l4.379,-0c3.314,-0 6,2.687 6,6l0,85.333c0,3.314 -2.687,6 -6,6l-4.379,-0Z" style="fill:none;fill-rule:nonzero;stroke:#050505;stroke-width:3px;"/><path d="M596.885,247.441l45.418,-32.948l5.825,55.807l-51.243,-22.859Z" style="fill:none;fill-rule:nonzero;stroke:#050505;stroke-width:3px;"/><path d="M842.701,226.274l7.772,-55.57l44.239,34.517l-52.011,21.053Z" style="fill:none;fill-rule:nonzero;stroke:#050505;stroke-width:3px;"/></g></g><clipPath id="_clip13"><rect x="540" y="540" width="540" height="540" clip-rule="nonzero"/></clipPath><g clip-path="url(#_clip13)"><path d="M654.942,665.405l-34.947,-34.947l34.947,-34.948l-40.818,-40.818l-34.947,34.947l-34.947,-34.947l-40.818,40.818l34.947,34.948l-34.947,34.947l40.818,40.818l34.947,-34.947l34.947,34.947l40.818,-40.818Z" style="fill:none;fill-rule:nonzero;stroke:#000;stroke-width:3px;"/></g><path d="M595.783,585.686l-34.947,-34.947l-20.836,20.836l-0,39.964l14.965,14.965l-14.965,14.965l-0,39.964l20.836,20.836l34.947,-34.947l34.948,34.947l40.818,-40.817l-34.947,-34.948l34.947,-34.947l-40.818,-40.818l-34.948,34.947Z" style="fill:#fff;fill-rule:nonzero;"/><g><clipPath id="_clip14"><rect x="540" y="540" width="540" height="540" clip-rule="nonzero"/></clipPath><g clip-path="url(#_clip14)"><path d="M671.549,661.451l-34.947,-34.947l34.947,-34.948l-40.818,-40.817l-34.948,34.947l-34.947,-34.947l-40.818,40.817l34.948,34.948l-34.948,34.947l40.818,40.818l34.947,-34.947l34.948,34.947l40.818,-40.818Z" style="fill:none;fill-rule:nonzero;stroke:#000;stroke-width:3px;"/><path d="M931.724,941.155l-34.947,-34.947l34.947,-34.948l-40.818,-40.818l-34.948,34.947l-34.947,-34.947l-40.818,40.818l34.947,34.948l-34.947,34.947l40.818,40.818l34.947,-34.947l34.948,34.947l40.818,-40.818Z" style="fill:none;fill-rule:nonzero;stroke:#000;stroke-width:3px;"/><path d="M948.329,937.201l-34.947,-34.947l34.947,-34.948l-40.818,-40.817l-34.947,34.947l-34.947,-34.947l-40.818,40.817l34.947,34.948l-34.947,34.947l40.818,40.818l34.947,-34.947l34.947,34.947l40.818,-40.818Z" style="fill:#feec70;fill-rule:nonzero;stroke:#000;stroke-width:3px;"/><clipPath id="_clip15"><rect x="540" y="540" width="540" height="540" clip-rule="nonzero"/></clipPath><g clip-path="url(#_clip15)"><path d="M1194.94,665.405l-34.947,-34.947l34.947,-34.948l-40.818,-40.818l-34.947,34.947l-34.947,-34.947l-40.818,40.818l34.947,34.948l-34.947,34.947l40.818,40.818l34.947,-34.947l34.947,34.947l40.818,-40.818Z" style="fill:none;fill-rule:nonzero;stroke:#000;stroke-width:3px;"/></g></g></g><path d="M1060.02,591.557l19.982,19.981l0,-39.963l-19.982,19.981Zm0,69.895l19.982,19.982l0,-39.963l-19.982,19.981Z" style="fill:#fff;fill-rule:nonzero;"/><g><clipPath id="_clip16"><rect x="540" y="540" width="540" height="540" clip-rule="nonzero"/></clipPath><g clip-path="url(#_clip16)"><path d="M1211.55,661.451l-34.947,-34.947l34.947,-34.948l-40.818,-40.817l-34.948,34.947l-34.947,-34.947l-40.818,40.817l34.948,34.948l-34.948,34.947l40.818,40.818l34.947,-34.947l34.948,34.947l40.818,-40.818Z" style="fill:none;fill-rule:nonzero;stroke:#000;stroke-width:3px;"/><path d="M775.271,625.045c2.768,0 4.985,2.242 4.985,4.99c-0,2.759 -2.217,4.983 -4.986,4.983c-2.745,0 -4.994,-2.224 -4.994,-4.983c0,-2.748 2.25,-4.99 4.995,-4.99Zm-0,25.41c2.768,0 4.985,2.224 4.985,4.963c-0,2.777 -2.217,4.985 -4.986,4.985c-2.745,0 -4.994,-2.208 -4.994,-4.985c0,-2.739 2.25,-4.963 4.995,-4.963Zm-0,25.388c2.768,0 4.985,2.222 4.985,4.992c-0,2.744 -2.217,4.987 -4.986,4.987c-2.74,0 -4.991,-2.243 -4.991,-4.987c-0,-2.77 2.25,-4.992 4.991,-4.992Zm0,25.395c2.769,0 4.986,2.213 4.986,4.985c-0,2.743 -2.217,4.985 -4.986,4.985c-2.74,0 -4.991,-2.242 -4.991,-4.985c-0,-2.772 2.25,-4.985 4.991,-4.985Zm0,25.388c2.769,0 4.986,2.239 4.986,4.98c-0,2.748 -2.217,4.997 -4.986,4.997c-2.74,0 -4.991,-2.249 -4.991,-4.997c-0,-2.741 2.25,-4.98 4.991,-4.98Zm0,25.378c2.769,0 4.986,2.249 4.986,4.995c-0,2.767 -2.217,4.992 -4.986,4.992c-2.74,0 -4.991,-2.225 -4.991,-4.992c-0,-2.746 2.25,-4.995 4.991,-4.995Z" style="fill:none;fill-rule:nonzero;stroke:#050505;stroke-width:3px;"/><path d="M770.278,782.389c0,-1.302 0.546,-2.592 1.466,-3.52c0.93,-0.92 2.226,-1.477 3.526,-1.477c1.32,0 2.593,0.557 3.542,1.477c1.841,1.874 1.841,5.186 0,7.068c-0.949,0.914 -2.222,1.464 -3.542,1.464c-1.3,0 -2.596,-0.55 -3.526,-1.464c-0.92,-0.926 -1.466,-2.224 -1.466,-3.548Z" style="fill:none;fill-rule:nonzero;stroke:#050505;stroke-width:3px;"/><path d="M748.681,625.045c2.741,0 4.99,2.242 4.99,4.99c-0,2.759 -2.249,4.983 -4.99,4.983c-2.768,0 -4.99,-2.224 -4.99,-4.983c-0,-2.748 2.222,-4.99 4.99,-4.99Zm-0,25.388c2.741,0 4.99,2.246 4.99,4.985c-0,2.777 -2.249,4.985 -4.99,4.985c-2.768,0 -4.99,-2.208 -4.99,-4.985c-0,-2.739 2.222,-4.985 4.99,-4.985Zm-0,25.41c2.741,0 4.994,2.222 4.994,4.992c-0,2.744 -2.253,4.987 -4.994,4.987c-2.768,0 -4.99,-2.243 -4.99,-4.987c-0,-2.77 2.222,-4.992 4.99,-4.992Zm-0,25.395c2.741,0 4.994,2.213 4.994,4.985c-0,2.743 -2.253,4.985 -4.994,4.985c-2.768,0 -4.99,-2.242 -4.99,-4.985c-0,-2.772 2.222,-4.985 4.99,-4.985Zm-0,25.388c2.741,0 4.994,2.239 4.994,4.98c-0,2.748 -2.253,4.997 -4.994,4.997c-2.768,0 -4.99,-2.249 -4.99,-4.997c-0,-2.741 2.222,-4.98 4.99,-4.98Zm-0,25.378c2.741,0 4.994,2.249 4.994,4.995c-0,2.767 -2.253,4.992 -4.994,4.992c-2.768,0 -4.99,-2.225 -4.99,-4.992c-0,-2.746 2.222,-4.995 4.99,-4.995Z" style="fill:none;fill-rule:nonzero;stroke:#050505;stroke-width:3px;"/><path d="M743.691,782.389c-0,-1.302 0.526,-2.592 1.448,-3.52c0.949,-0.92 2.218,-1.477 3.542,-1.477c1.295,0 2.592,0.557 3.514,1.477c1.848,1.874 1.848,5.186 -0,7.068c-0.922,0.914 -2.219,1.442 -3.514,1.442c-1.324,0 -2.617,-0.528 -3.542,-1.442c-0.922,-0.954 -1.448,-2.224 -1.448,-3.548Z" style="fill:none;fill-rule:nonzero;stroke:#050505;stroke-width:3px;"/><path d="M721.217,625.045c2.777,0 4.987,2.242 4.987,4.99c-0,2.759 -2.21,4.983 -4.987,4.983c-2.736,0 -4.985,-2.224 -4.985,-4.983c-0,-2.748 2.249,-4.99 4.985,-4.99Zm-0,25.388c2.777,0 4.987,2.246 4.987,4.985c-0,2.777 -2.21,5.01 -4.987,5.01c-2.736,0 -4.985,-2.233 -4.985,-5.01c-0,-2.739 2.249,-4.985 4.985,-4.985Zm-0,25.41c2.777,0 4.987,2.222 4.987,4.992c-0,2.744 -2.21,4.987 -4.987,4.987c-2.736,0 -4.985,-2.243 -4.985,-4.987c-0,-2.77 2.249,-4.992 4.985,-4.992Zm-0,25.395c2.777,0 4.987,2.213 4.987,4.985c-0,2.743 -2.21,4.985 -4.987,4.985c-2.736,0 -4.985,-2.242 -4.985,-4.985c-0,-2.772 2.249,-4.985 4.985,-4.985Zm-0,25.388c2.777,0 4.987,2.219 4.987,4.98c-0,2.748 -2.21,4.997 -4.987,4.997c-2.736,0 -4.985,-2.249 -4.985,-4.997c-0,-2.761 2.249,-4.98 4.985,-4.98Zm-0,25.378c2.777,0 4.987,2.249 4.987,4.995c-0,2.767 -2.21,4.992 -4.987,4.992c-2.736,0 -4.985,-2.225 -4.985,-4.992c-0,-2.746 2.249,-4.995 4.985,-4.995Z" style="fill:none;fill-rule:nonzero;stroke:#050505;stroke-width:3px;"/><path d="M716.231,782.389c0,-1.302 0.519,-2.592 1.444,-3.52c0.952,-0.92 2.251,-1.477 3.541,-1.477c1.327,0 2.6,0.557 3.52,1.477c1.874,1.874 1.874,5.186 0.026,7.068c-0.946,0.914 -2.244,1.464 -3.546,1.464c-1.29,0 -2.589,-0.55 -3.51,-1.464c-0.956,-0.954 -1.475,-2.224 -1.475,-3.548Z" style="fill:none;fill-rule:nonzero;stroke:#050505;stroke-width:3px;"/><path d="M627.5,846.442c2.768,0 4.985,2.242 4.985,4.989c0,2.76 -2.217,4.984 -4.985,4.984c-2.745,0 -4.994,-2.224 -4.994,-4.984c0,-2.747 2.249,-4.989 4.994,-4.989Zm0,25.41c2.768,0 4.985,2.224 4.985,4.963c0,2.776 -2.217,4.985 -4.985,4.985c-2.745,0 -4.994,-2.209 -4.994,-4.985c0,-2.739 2.249,-4.963 4.994,-4.963Zm0,25.388c2.768,0 4.985,2.222 4.985,4.992c0,2.743 -2.217,4.987 -4.985,4.987c-2.741,0 -4.992,-2.244 -4.992,-4.987c0,-2.77 2.251,-4.992 4.992,-4.992Zm0,25.394c2.768,0 4.985,2.214 4.985,4.986c0,2.743 -2.217,4.985 -4.985,4.985c-2.741,0 -4.992,-2.242 -4.992,-4.985c0,-2.772 2.251,-4.986 4.992,-4.986Zm0,25.388c2.768,0 4.985,2.24 4.985,4.982c0,2.747 -2.217,4.996 -4.985,4.996c-2.741,0 -4.992,-2.249 -4.992,-4.996c0,-2.742 2.251,-4.982 4.992,-4.982Zm0,25.38c2.768,0 4.985,2.248 4.985,4.993c0,2.769 -2.217,4.992 -4.985,4.992c-2.741,0 -4.992,-2.223 -4.992,-4.992c0,-2.745 2.251,-4.993 4.992,-4.993Z" style="fill:none;fill-rule:nonzero;stroke:#050505;stroke-width:3px;"/><path d="M622.508,1003.79c-0,-1.302 0.546,-2.592 1.466,-3.52c0.93,-0.919 2.226,-1.476 3.526,-1.476c1.32,0 2.593,0.557 3.542,1.476c1.841,1.874 1.841,5.185 -0,7.068c-0.949,0.914 -2.222,1.464 -3.542,1.464c-1.3,0 -2.596,-0.55 -3.526,-1.464c-0.92,-0.927 -1.466,-2.224 -1.466,-3.548Z" style="fill:none;fill-rule:nonzero;stroke:#050505;stroke-width:3px;"/><path d="M600.91,846.442c2.741,0 4.99,2.242 4.99,4.989c0,2.76 -2.249,4.984 -4.99,4.984c-2.768,0 -4.99,-2.224 -4.99,-4.984c0,-2.747 2.222,-4.989 4.99,-4.989Zm0,25.388c2.741,0 4.99,2.246 4.99,4.985c0,2.776 -2.249,4.985 -4.99,4.985c-2.768,0 -4.99,-2.209 -4.99,-4.985c0,-2.739 2.222,-4.985 4.99,-4.985Zm0,25.41c2.741,0 4.994,2.222 4.994,4.992c0,2.743 -2.253,4.987 -4.994,4.987c-2.768,0 -4.99,-2.244 -4.99,-4.987c0,-2.77 2.222,-4.992 4.99,-4.992Zm0,25.394c2.741,0 4.994,2.214 4.994,4.986c0,2.743 -2.253,4.985 -4.994,4.985c-2.768,0 -4.99,-2.242 -4.99,-4.985c0,-2.772 2.222,-4.986 4.99,-4.986Zm0,25.388c2.741,0 4.994,2.24 4.994,4.982c0,2.747 -2.253,4.996 -4.994,4.996c-2.768,0 -4.99,-2.249 -4.99,-4.996c0,-2.742 2.222,-4.982 4.99,-4.982Zm0,25.38c2.741,0 4.994,2.248 4.994,4.993c0,2.769 -2.253,4.992 -4.994,4.992c-2.768,0 -4.99,-2.223 -4.99,-4.992c0,-2.745 2.222,-4.993 4.99,-4.993Z" style="fill:none;fill-rule:nonzero;stroke:#050505;stroke-width:3px;"/><path d="M595.92,1003.79c0,-1.302 0.526,-2.592 1.448,-3.52c0.949,-0.919 2.218,-1.476 3.542,-1.476c1.295,0 2.592,0.557 3.514,1.476c1.848,1.874 1.848,5.185 0,7.068c-0.922,0.914 -2.219,1.442 -3.514,1.442c-1.324,0 -2.617,-0.528 -3.542,-1.442c-0.922,-0.953 -1.448,-2.224 -1.448,-3.548Z" style="fill:none;fill-rule:nonzero;stroke:#050505;stroke-width:3px;"/><path d="M573.446,846.442c2.777,0 4.987,2.242 4.987,4.989c0,2.76 -2.21,4.984 -4.987,4.984c-2.736,0 -4.985,-2.224 -4.985,-4.984c0,-2.747 2.249,-4.989 4.985,-4.989Zm0,25.388c2.777,0 4.987,2.246 4.987,4.985c0,2.776 -2.21,5.01 -4.987,5.01c-2.736,0 -4.985,-2.234 -4.985,-5.01c0,-2.739 2.249,-4.985 4.985,-4.985Zm0,25.41c2.777,0 4.987,2.222 4.987,4.992c0,2.743 -2.21,4.987 -4.987,4.987c-2.736,0 -4.985,-2.244 -4.985,-4.987c0,-2.77 2.249,-4.992 4.985,-4.992Zm0,25.394c2.777,0 4.987,2.214 4.987,4.986c0,2.743 -2.21,4.985 -4.987,4.985c-2.736,0 -4.985,-2.242 -4.985,-4.985c0,-2.772 2.249,-4.986 4.985,-4.986Zm0,25.388c2.777,0 4.987,2.221 4.987,4.982c0,2.747 -2.21,4.996 -4.987,4.996c-2.736,0 -4.985,-2.249 -4.985,-4.996c0,-2.761 2.249,-4.982 4.985,-4.982Zm0,25.38c2.777,0 4.987,2.248 4.987,4.993c0,2.769 -2.21,4.992 -4.987,4.992c-2.736,0 -4.985,-2.223 -4.985,-4.992c0,-2.745 2.249,-4.993 4.985,-4.993Z" style="fill:none;fill-rule:nonzero;stroke:#050505;stroke-width:3px;"/><path d="M568.461,1003.79c-0,-1.302 0.519,-2.592 1.444,-3.52c0.952,-0.919 2.251,-1.476 3.541,-1.476c1.327,0 2.6,0.557 3.52,1.476c1.874,1.874 1.874,5.185 0.026,7.068c-0.946,0.914 -2.244,1.464 -3.546,1.464c-1.29,0 -2.589,-0.55 -3.51,-1.464c-0.956,-0.953 -1.475,-2.224 -1.475,-3.548Z" style="fill:none;fill-rule:nonzero;stroke:#050505;stroke-width:3px;"/><path d="M1044.5,888.837c2.768,-0 4.985,2.242 4.985,4.989c0,2.76 -2.217,4.984 -4.985,4.984c-2.745,-0 -4.994,-2.224 -4.994,-4.984c0,-2.747 2.249,-4.989 4.994,-4.989Zm0,25.41c2.768,-0 4.985,2.224 4.985,4.963c0,2.776 -2.217,4.985 -4.985,4.985c-2.745,-0 -4.994,-2.209 -4.994,-4.985c0,-2.739 2.249,-4.963 4.994,-4.963Zm0,25.388c2.768,-0 4.985,2.222 4.985,4.992c0,2.743 -2.217,4.987 -4.985,4.987c-2.741,-0 -4.992,-2.244 -4.992,-4.987c0,-2.77 2.251,-4.992 4.992,-4.992Zm0,25.394c2.768,-0 4.985,2.214 4.985,4.986c0,2.743 -2.217,4.985 -4.985,4.985c-2.741,-0 -4.992,-2.242 -4.992,-4.985c0,-2.772 2.251,-4.986 4.992,-4.986Zm0,25.388c2.768,-0 4.985,2.24 4.985,4.982c0,2.747 -2.217,4.996 -4.985,4.996c-2.741,-0 -4.992,-2.249 -4.992,-4.996c0,-2.742 2.251,-4.982 4.992,-4.982Zm0,25.38c2.768,-0 4.985,2.248 4.985,4.993c0,2.769 -2.217,4.992 -4.985,4.992c-2.741,-0 -4.992,-2.223 -4.992,-4.992c0,-2.745 2.251,-4.993 4.992,-4.993Z" style="fill:none;fill-rule:nonzero;stroke:#050505;stroke-width:3px;"/><path d="M1039.51,1046.18c-0,-1.302 0.546,-2.592 1.466,-3.52c0.93,-0.919 2.226,-1.476 3.526,-1.476c1.32,-0 2.593,0.557 3.542,1.476c1.841,1.874 1.841,5.185 -0,7.068c-0.949,0.914 -2.222,1.464 -3.542,1.464c-1.3,-0 -2.596,-0.55 -3.526,-1.464c-0.92,-0.927 -1.466,-2.224 -1.466,-3.548Z" style="fill:none;fill-rule:nonzero;stroke:#050505;stroke-width:3px;"/><path d="M1017.91,888.837c2.741,-0 4.99,2.242 4.99,4.989c0,2.76 -2.249,4.984 -4.99,4.984c-2.768,-0 -4.99,-2.224 -4.99,-4.984c0,-2.747 2.222,-4.989 4.99,-4.989Zm0,25.388c2.741,-0 4.99,2.246 4.99,4.985c0,2.776 -2.249,4.985 -4.99,4.985c-2.768,-0 -4.99,-2.209 -4.99,-4.985c0,-2.739 2.222,-4.985 4.99,-4.985Zm0,25.41c2.741,-0 4.994,2.222 4.994,4.992c0,2.743 -2.253,4.987 -4.994,4.987c-2.768,-0 -4.99,-2.244 -4.99,-4.987c0,-2.77 2.222,-4.992 4.99,-4.992Zm0,25.394c2.741,-0 4.994,2.214 4.994,4.986c0,2.743 -2.253,4.985 -4.994,4.985c-2.768,-0 -4.99,-2.242 -4.99,-4.985c0,-2.772 2.222,-4.986 4.99,-4.986Zm0,25.388c2.741,-0 4.994,2.24 4.994,4.982c0,2.747 -2.253,4.996 -4.994,4.996c-2.768,-0 -4.99,-2.249 -4.99,-4.996c0,-2.742 2.222,-4.982 4.99,-4.982Zm0,25.38c2.741,-0 4.994,2.248 4.994,4.993c0,2.769 -2.253,4.992 -4.994,4.992c-2.768,-0 -4.99,-2.223 -4.99,-4.992c0,-2.745 2.222,-4.993 4.99,-4.993Z" style="fill:none;fill-rule:nonzero;stroke:#050505;stroke-width:3px;"/><path d="M1012.92,1046.18c0,-1.302 0.526,-2.592 1.448,-3.52c0.949,-0.919 2.218,-1.476 3.542,-1.476c1.295,-0 2.592,0.557 3.514,1.476c1.848,1.874 1.848,5.185 0,7.068c-0.922,0.914 -2.219,1.442 -3.514,1.442c-1.324,-0 -2.617,-0.528 -3.542,-1.442c-0.922,-0.953 -1.448,-2.224 -1.448,-3.548Z" style="fill:none;fill-rule:nonzero;stroke:#050505;stroke-width:3px;"/><path d="M990.446,888.837c2.777,-0 4.987,2.242 4.987,4.989c0,2.76 -2.21,4.984 -4.987,4.984c-2.736,-0 -4.985,-2.224 -4.985,-4.984c0,-2.747 2.249,-4.989 4.985,-4.989Zm0,25.388c2.777,-0 4.987,2.246 4.987,4.985c0,2.776 -2.21,5.01 -4.987,5.01c-2.736,-0 -4.985,-2.234 -4.985,-5.01c0,-2.739 2.249,-4.985 4.985,-4.985Zm0,25.41c2.777,-0 4.987,2.222 4.987,4.992c0,2.743 -2.21,4.987 -4.987,4.987c-2.736,-0 -4.985,-2.244 -4.985,-4.987c0,-2.77 2.249,-4.992 4.985,-4.992Zm0,25.394c2.777,-0 4.987,2.214 4.987,4.986c0,2.743 -2.21,4.985 -4.987,4.985c-2.736,-0 -4.985,-2.242 -4.985,-4.985c0,-2.772 2.249,-4.986 4.985,-4.986Zm0,25.388c2.777,-0 4.987,2.221 4.987,4.982c0,2.747 -2.21,4.996 -4.987,4.996c-2.736,-0 -4.985,-2.249 -4.985,-4.996c0,-2.761 2.249,-4.982 4.985,-4.982Zm0,25.38c2.777,-0 4.987,2.248 4.987,4.993c0,2.769 -2.21,4.992 -4.987,4.992c-2.736,-0 -4.985,-2.223 -4.985,-4.992c0,-2.745 2.249,-4.993 4.985,-4.993Z" style="fill:none;fill-rule:nonzero;stroke:#050505;stroke-width:3px;"/><path d="M985.461,1046.18c-0,-1.302 0.519,-2.592 1.444,-3.52c0.952,-0.919 2.251,-1.476 3.541,-1.476c1.327,-0 2.6,0.557 3.52,1.476c1.874,1.874 1.874,5.185 0.026,7.068c-0.946,0.914 -2.244,1.464 -3.546,1.464c-1.29,-0 -2.589,-0.55 -3.51,-1.464c-0.956,-0.953 -1.475,-2.224 -1.475,-3.548Z" style="fill:none;fill-rule:nonzero;stroke:#050505;stroke-width:3px;"/><path d="M856.651,554.692c0,-12.556 -10.194,-22.75 -22.75,-22.75c-12.556,0 -22.75,10.194 -22.75,22.75c0,12.556 10.194,22.75 22.75,22.75c12.556,0 22.75,-10.194 22.75,-22.75Z" style="fill:none;stroke:#050505;stroke-width:3px;"/><path d="M873.651,554.692c0,-21.938 -17.811,-39.75 -39.75,-39.75c-21.938,0 -39.75,17.812 -39.75,39.75c0,21.939 17.812,39.75 39.75,39.75c21.939,0 39.75,-17.811 39.75,-39.75Z" style="fill:none;stroke:#050505;stroke-width:3px;"/><path d="M1018.18,766.274c-0,-12.556 -10.194,-22.75 -22.75,-22.75c-12.556,-0 -22.75,10.194 -22.75,22.75c-0,12.556 10.194,22.75 22.75,22.75c12.556,-0 22.75,-10.194 22.75,-22.75Z" style="fill:none;stroke:#050505;stroke-width:3px;"/><path d="M1035.18,766.274c-0,-21.939 -17.812,-39.75 -39.75,-39.75c-21.939,-0 -39.75,17.811 -39.75,39.75c-0,21.939 17.811,39.75 39.75,39.75c21.938,-0 39.75,-17.811 39.75,-39.75Z" style="fill:none;stroke:#050505;stroke-width:3px;"/><path d="M856.651,1095.25c0,-12.556 -10.194,-22.75 -22.75,-22.75c-12.556,0 -22.75,10.194 -22.75,22.75c0,12.556 10.194,22.75 22.75,22.75c12.556,0 22.75,-10.194 22.75,-22.75Z" style="fill:none;stroke:#050505;stroke-width:3px;"/><path d="M873.651,1095.25c0,-21.939 -17.811,-39.75 -39.75,-39.75c-21.938,0 -39.75,17.811 -39.75,39.75c0,21.939 17.812,39.75 39.75,39.75c21.939,0 39.75,-17.811 39.75,-39.75Z" style="fill:none;stroke:#050505;stroke-width:3px;"/><path d="M1007.5,619.045c0,3.314 -2.687,6 -6,6l-85.333,0c-3.314,0 -6,-2.686 -6,-6l0,-4.378c0,-3.314 2.686,-6 6,-6l85.333,0c3.313,0 6,2.686 6,6l0,4.378Z" style="fill:none;fill-rule:nonzero;stroke:#050505;stroke-width:3px;"/><path d="M948.329,653.817c0,3.314 -2.686,6 -6,6l-85.333,-0c-3.313,-0 -6,-2.686 -6,-6l0,-4.378c0,-3.314 2.687,-6 6,-6l85.333,-0c3.314,-0 6,2.686 6,6l0,4.378Z" style="fill:none;fill-rule:nonzero;stroke:#050505;stroke-width:3px;"/><path d="M727.75,1035.56c-3.313,-0.001 -6,-2.687 -6,-6.001l-0,-85.333c-0,-3.314 2.687,-6 6,-6l4.379,0c3.313,0 6,2.686 6,6l-0,85.333c-0,3.314 -2.688,6 -6,6l-4.38,0Z" style="fill:none;fill-rule:nonzero;stroke:#050505;stroke-width:3px;"/><path d="M692.978,976.391c-3.313,-0 -6,-2.686 -6,-6l0,-85.333c0,-3.313 2.687,-6 6,-6l4.379,-0c3.314,-0 6,2.687 6,6l0,85.333c0,3.314 -2.687,6 -6,6l-4.379,-0Z" style="fill:none;fill-rule:nonzero;stroke:#050505;stroke-width:3px;"/><path d="M596.885,787.441l45.418,-32.948l5.825,55.807l-51.243,-22.859Z" style="fill:none;fill-rule:nonzero;stroke:#050505;stroke-width:3px;"/><path d="M842.701,766.274l7.772,-55.57l44.239,34.517l-52.011,21.053Z" style="fill:none;fill-rule:nonzero;stroke:#050505;stroke-width:3px;"/></g></g></g></svg>